<?xml version="1.0" encoding="UTF-8"?><svg id="Laag_1" xmlns="http://www.w3.org/2000/svg" viewBox="0 0 512 512"><defs><style>.cls-1{fill:#fff;}</style></defs><rect class="cls-1" y="0" width="512" height="512"/><g><g><path d="M363.12,153.12c1.49,4.54,2.87,9.13,4.1,13.79,.29,1.08,.52,2.15,.72,3.21,24.9,29.44,40.1,67.59,40.1,106.4,0,42.01-17.84,79.92-46.48,106.96,.09-21.32,0-42.64-.21-63.96-.02-2.07,.22-4.44-2.95-4.51-6.5-.15-6.17-6.43-6.56-10.56-.37-3.9,.66-6.87,.97-10.07,.18-1.81,1.92-3.07,3.68-2.62,11.98,3.1,27.93-.35,35.76-7.79,1.39-1.32,1.13-3.59-.46-4.66-13.58-9.14-19.55-24.32-27.92-37.7-.54-.86-1.06-1.73-1.63-2.57-7.45-10.99-19.8-14.36-30.38-6.5-16.09,11.95-26.49,28.33-32.13,47.63-1.18,4.04,.32,6.02,4.55,6.79,12.16,2.24,24.11,6.42,37.29,3.77,2.03-.41,3.85,1.24,3.63,3.29-.47,4.49-1.77,8.12-1.53,12.99,.25,5.08-1.31,8.08-5.8,7.82-1.87-.11-3.64,1.41-3.92,3.26,0,0-.71,5.38-.3,8.43,.41,3.05,.16,4.35-2.54,4l-9.83-.71c-.77-.1-1.37-.74-1.41-1.51-.19-3.67-.53-3.83-.35-5.78,.19-1.95,2.53-7.7-3.61-6.57-6.14,1.13-10.55-3.24-15.32-4.61-1.89-.54-7.35-3.58-3.84,2.8,3.51,6.38,1.61,12.66-1.31,44-2.92,31.34-.42,49.95-.48,51.08-.14,2.74-2.39,4.91-5.13,4.92-3.67,.02-8.89,.06-14.87,.1-6.23,0-8.63-2.95-8.63-6.78v-23.35c0-9.06-2.4-17.96-6.95-25.79l-1.96-3.37c-.69-1.19-2.42-1.19-3.11,0l-1.96,3.37c-4.55,7.83-6.95,16.73-6.95,25.79v22.46c0,2.64-.14,7.65-8.64,7.92,4.16-.03,6.87-.03-.71,.03,.25,0,.47-.02,.71-.03-1.93,.02-2.44,.03-.71,.03-5.97,.04-11.2,.08-14.94,.1-2.88,.02-5.22-2.32-5.22-5.2,0-1.53,3.35-25.94-.49-51.03-3.83-25.1-3.93-41.46-1.89-45.72,2.04-4.26-1.82-3.18-3.64-2.8l-16.29,3.45c-1.27,.27-2.22,1.31-2.37,2.59-.27,2.31-.72,6.09-1.14,9.34-.33,2.59-.14,4.53-3.07,4.53h-6.25c-1.43,0-2.72-1-2.96-2.41-.87-5.07,1.44-11.54-4.58-13.03-2.36-.58-4.07-2.63-4.07-5.07l-1.77-18.32c0-.54,.47-.97,1-.92,4.54,.42,8.74,1.26,12.8,.83,8.03-.85,15.94-2.86,23.97-3.79,4.84-.56,6.78-2.69,4.65-6.86-6.4-12.52-11.8-25.91-20.17-37-17.15-22.71-35.63-20.21-47.88,5.45-5.3,11.1-10.8,21.76-21.13,29.2-5.17,3.72-3.96,7.43,1.56,9.33,10.44,3.59,20.76,9.57,32.7,4.37,1.94-.84,4.11,.64,4.14,2.76,.06,5.09,.97,9.28,.34,14.56-.18,1.49-2.24,3.78-3.63,3.94-5.36,.6-5.55,3.94-5.55,8.1,.03,20.73,.05,41.46-.15,62.19-28.41-27.02-46.09-64.78-46.09-106.6s16.76-80.74,43.89-110.72c.53-2.97,1.21-6.05,2.09-9.27,.47-1.73,.97-3.45,1.48-5.17-45.7,31.13-75.5,82.66-75.5,143.12,0,99.46,80.63,176.55,180.08,176.55s180.08-77.1,180.08-176.55c0-59.33-28.7-110.07-72.96-141.36Zm-39.7,208.2c0-4.39,1.16-8.7,3.37-12.49l.95-1.63c.34-.58,1.17-.58,1.51,0l.95,1.63c2.21,3.79,3.37,8.1,3.37,12.49v14.98h-10.14v-14.98Zm-145.62,0c0-4.39,1.16-8.7,3.37-12.49l.95-1.63c.34-.58,1.17-.58,1.51,0l.95,1.63c2.21,3.79,3.37,8.1,3.37,12.49v14.98h-10.14v-14.98Z"/><path d="M243.87,322.26c0-5.34-1.41-10.58-4.1-15.2l-1.15-1.98c-.41-.7-1.43-.7-1.83,0l-1.15,1.98c-2.68,4.61-4.1,9.86-4.1,15.2v18.22h12.34v-18.22Z"/><path d="M275.31,322.26c0-5.34-1.41-10.58-4.1-15.2l-1.15-1.98c-.41-.7-1.42-.7-1.83,0l-1.15,1.98c-2.68,4.61-4.1,9.86-4.1,15.2v18.22h12.34v-18.22Z"/></g><g><path d="M367.94,170.12c-.2-1.06-.43-2.12-.72-3.21-1.23-4.66-2.61-9.26-4.1-13.79-11.72-35.72-31.43-67.3-59.98-92.5-8.08-7.13-16.75-12.33-25.65-15.68-.87-.33-1.75-.63-2.62-.92-5.91-3.1-11.11-12.37-19.53-16.05-8.86-3.88-16.39,12.33-24.06,16.19-.64,.22-1.28,.44-1.91,.68-10.83,4.12-21.02,11.11-29.84,20.9-22.35,24.81-38.63,53.66-48.12,85.61-.51,1.72-1.01,3.43-1.48,5.17-.87,3.22-1.56,6.31-2.09,9.27-1.44,8.11-1.62,15.28-.54,21.46,3.7,21.3,22.37,38.34,53.32,32.97,8.92-1.55,11.85-3.96,12.72-2.59,.87,1.38,.98,10.65-.33,16.54-1.3,5.89,5.22,10.91,6.84,19.87,7.28,40.15-8.76,44.42-.68,45.48,10.47,1.37,14.29-35.97,14.44-43.33,.15-7.32-6.75-18.28-3.25-46.08,.04-.34,.06-.67,.17-.98-.95,.24-1.75,.43-1.99,.46-20.95,2.39-29.88-7.36-24.42-27.48,4.35-16.03,12.28-30.46,23.37-42.78,.92-1.03,1.89-1.97,2.87-2.87,13.25-12.06,31.59-12.22,45.96,.45,2.29,2.02,4.45,4.15,6.5,6.34,11.52,12.31,19.32,27.19,23.69,43.75,3.52,13.34-6.24,22.54-23.24,22.98-1.12,.03-2.75-.22-4.46-.53,.08,.29,.1,.59,.1,.9,.54,24.16-6.74,27.67-6.65,40.54,.07,9.63,5.86,46.91,15.66,45.68,9.81-1.23-11.46-18.7-.67-46.37,4.33-11.1,10.84-12.6,8.82-21.96-.92-4.25-1.7-8.44-2.01-12.4-.15-1.91,1.46-3.49,3.36-3.24,2.69,.36,5.97,1,9.22,1.6,4.28,.79,8.5,1.52,11.25,1.45,27.31-.7,45.8-12.07,49.95-29.82,1.12-4.8,1.18-10.07,.1-15.72Z"/><path d="M294.48,180.99c-2.45-9.29-6.31-17.89-11.66-25.53-3.27-4.67-7.09-8.99-11.5-12.88-11.83-10.44-27.19-9.53-37.45,1.85-1.23,1.36-2.39,2.77-3.51,4.2-6.68,8.48-11.56,18.09-14.41,28.61-4.19,15.43,2.67,22.91,18.73,21.07,.19-.02,.8-.17,1.53-.35,.68-.17,1.46-.38,2.12-.54,.72-.18,1.41,.41,1.34,1.15-.34,3.95-1.93,8.15-2.89,12.05-.39,1.6-.69,3.16-.73,4.62-.06,1.97,.54,3.06,1.48,3.7,1.15,.79,2.81,.9,4.42,1.11,3.78,.49,4.19-2.21,4.25-4.87,.11-5.42-1.08-13.09-1.17-18.57,0-.4,.21-.78,.56-.96,4.72-2.45,12.01-1.67,16.32,.03,.41,.16,.68,.58,.66,1.02-.21,5.05-2.44,11.91-2.41,16.56,.02,3.48,0,6.6,5.17,6.55,5.25-.05,4.96-3.43,5.05-6.75,.11-4.39-1.98-9.8-2.34-14.38-.05-.69,.53-1.26,1.21-1.17,1.15,.15,2.6,.45,3.98,.7,1.32,.24,2.57,.43,3.42,.41,13.04-.34,20.53-7.39,17.83-17.62Z"/></g></g></svg>