<?xml version="1.0" encoding="UTF-8"?><svg id="Laag_1" xmlns="http://www.w3.org/2000/svg" xmlns:xlink="http://www.w3.org/1999/xlink" viewBox="0 0 512 512"><defs><style>.cls-1{fill:url(#Naamloos_verloop_123-4);}.cls-2{fill:url(#Naamloos_verloop_123-2);}.cls-3{fill:url(#Naamloos_verloop_123-3);}.cls-4{fill:url(#Naamloos_verloop_123-5);}.cls-5{fill:url(#Naamloos_verloop_123);}</style><linearGradient id="Naamloos_verloop_123" x1="256" y1="512" x2="256" y2="143.07" gradientTransform="matrix(1, 0, 0, 1, 0, 0)" gradientUnits="userSpaceOnUse"><stop offset=".14" stop-color="#ec6a25"/><stop offset=".18" stop-color="#e26523"/><stop offset=".25" stop-color="#c85a1f"/><stop offset=".33" stop-color="#9f4718"/><stop offset=".44" stop-color="#652d0f"/><stop offset=".55" stop-color="#1c0c04"/><stop offset=".59" stop-color="#000"/></linearGradient><linearGradient id="Naamloos_verloop_123-2" x1="234.86" y1="361.33" x2="234.86" y2="319.86" xlink:href="#Naamloos_verloop_123"/><linearGradient id="Naamloos_verloop_123-3" x1="271.18" y1="361.33" x2="271.18" y2="319.86" xlink:href="#Naamloos_verloop_123"/><linearGradient id="Naamloos_verloop_123-4" x1="257.92" y1="314.12" x2="257.92" y2="0" xlink:href="#Naamloos_verloop_123"/><linearGradient id="Naamloos_verloop_123-5" x1="254.71" y1="222.4" x2="254.71" y2="124.51" xlink:href="#Naamloos_verloop_123"/></defs><g><path class="cls-5" d="M379.73,145.11c1.72,5.23,3.31,10.53,4.73,15.92,.33,1.25,.6,2.48,.83,3.7,28.76,33.98,46.32,78,46.32,122.79,0,48.48-20.6,92.23-53.68,123.44,.11-24.6,0-49.21-.24-73.81-.02-2.39,.26-5.13-3.4-5.21-7.51-.17-7.13-7.43-7.57-12.19-.42-4.5,.76-7.93,1.12-11.62,.2-2.09,2.22-3.55,4.25-3.02,13.84,3.58,32.26-.41,41.3-8.99,1.6-1.52,1.31-4.14-.53-5.37-15.69-10.54-22.58-28.07-32.25-43.51-.62-.99-1.23-2-1.89-2.97-8.61-12.69-22.87-16.57-35.08-7.51-18.58,13.79-30.6,32.69-37.11,54.96-1.36,4.66,.37,6.94,5.25,7.84,14.04,2.58,27.85,7.41,43.07,4.35,2.34-.47,4.45,1.43,4.2,3.8-.55,5.18-2.04,9.37-1.76,14.99,.29,5.86-1.51,9.33-6.7,9.03-2.16-.13-4.2,1.62-4.53,3.76,0,0-.82,6.2-.34,9.73,.47,3.52,.18,5.02-2.94,4.62l-11.36-.82c-.89-.12-1.58-.85-1.62-1.75-.22-4.23-.62-4.42-.4-6.67,.22-2.25,2.92-8.88-4.17-7.58-7.09,1.3-12.19-3.74-17.7-5.33-2.18-.63-8.49-4.13-4.44,3.23,4.05,7.36,1.86,14.61-1.51,50.78-3.37,36.17-.48,57.64-.55,58.95-.17,3.17-2.76,5.67-5.93,5.68-4.24,.02-10.26,.06-17.18,.11-7.19,0-9.97-3.41-9.97-7.82v-26.95c0-10.46-2.77-20.73-8.03-29.77l-2.26-3.89c-.8-1.38-2.79-1.38-3.6,0l-2.26,3.89c-5.26,9.04-8.03,19.31-8.03,29.77v25.93c0,3.05-.16,8.82-9.98,9.14,4.81-.04,7.93-.03-.82,.03,.29,0,.54-.02,.82-.03-2.23,.02-2.82,.03-.82,.03-6.89,.05-12.94,.09-17.26,.11-3.33,.02-6.03-2.67-6.03-6,0-1.76,3.86-29.93-.56-58.9-4.43-28.96-4.54-47.85-2.18-52.77,2.35-4.92-2.1-3.67-4.2-3.23l-18.82,3.98c-1.46,.31-2.57,1.51-2.74,2.99-.31,2.66-.83,7.02-1.32,10.78-.39,2.99-.17,5.23-3.54,5.23h-7.21c-1.66,0-3.14-1.15-3.42-2.78-1.01-5.85,1.67-13.32-5.29-15.03-2.73-.67-4.7-3.04-4.7-5.85l-2.04-21.15c0-.62,.54-1.12,1.16-1.06,5.24,.49,10.09,1.46,14.79,.96,9.28-.98,18.41-3.3,27.69-4.37,5.59-.64,7.83-3.11,5.37-7.91-7.4-14.45-13.63-29.9-23.3-42.7-19.81-26.21-41.15-23.32-55.31,6.29-6.12,12.81-12.48,25.11-24.41,33.7-5.97,4.3-4.57,8.58,1.8,10.77,12.06,4.14,23.98,11.04,37.77,5.05,2.24-.97,4.75,.74,4.78,3.18,.07,5.88,1.12,10.7,.4,16.8-.2,1.72-2.58,4.36-4.19,4.54-6.2,.69-6.41,4.55-6.41,9.35,.03,23.93,.06,47.85-.17,71.78-32.82-31.18-53.23-74.76-53.23-123.02s19.35-93.18,50.69-127.78c.61-3.43,1.4-6.99,2.41-10.7,.54-2,1.12-3.98,1.71-5.96-52.79,35.92-87.2,95.4-87.2,165.18,0,114.78,93.12,203.76,208,203.76s208-88.97,208-203.76c0-68.47-33.14-127.03-84.27-163.14Zm-45.85,240.29c0-5.06,1.34-10.04,3.89-14.42l1.1-1.88c.39-.67,1.35-.67,1.74,0l1.1,1.88c2.55,4.38,3.89,9.35,3.89,14.42v17.29h-11.71v-17.29Zm-168.19,0c0-5.06,1.34-10.04,3.89-14.42l1.1-1.88c.39-.67,1.35-.67,1.74,0l1.1,1.88c2.55,4.38,3.89,9.35,3.89,14.42v17.29h-11.71v-17.29Z"/><path class="cls-2" d="M241.99,340.3c0-6.16-1.63-12.21-4.73-17.54l-1.33-2.29c-.47-.81-1.65-.81-2.12,0l-1.33,2.29c-3.1,5.33-4.73,11.38-4.73,17.54v21.03h14.25v-21.03Z"/><path class="cls-3" d="M278.3,340.3c0-6.16-1.63-12.21-4.73-17.54l-1.33-2.29c-.47-.81-1.65-.81-2.12,0l-1.33,2.29c-3.1,5.33-4.73,11.38-4.73,17.54v21.03h14.25v-21.03Z"/></g><g><path class="cls-1" d="M385.29,164.73c-.24-1.22-.5-2.45-.83-3.7-1.42-5.38-3.01-10.68-4.73-15.92-13.53-41.22-36.3-77.67-69.28-106.75-9.33-8.23-19.34-14.24-29.63-18.09-1.01-.38-2.02-.72-3.03-1.06-6.82-3.58-12.83-14.27-22.55-18.52-10.24-4.47-18.93,14.23-27.79,18.68-.74,.26-1.48,.5-2.21,.78-12.51,4.75-24.28,12.82-34.47,24.12-25.81,28.64-44.62,61.93-55.58,98.8-.59,1.98-1.17,3.96-1.71,5.96-1.01,3.72-1.8,7.28-2.41,10.7-1.67,9.36-1.87,17.64-.63,24.77,4.27,24.58,25.84,44.24,61.58,38.05,10.3-1.79,13.68-4.57,14.69-2.98,1.01,1.59,1.13,12.29-.38,19.09-1.51,6.8,6.03,12.59,7.9,22.93,8.41,46.33-10.12,51.27-.79,52.48,12.09,1.58,16.5-41.51,16.67-50.01,.17-8.45-7.79-21.1-3.75-53.18,.05-.39,.07-.77,.19-1.13-1.1,.28-2.02,.5-2.3,.53-24.19,2.76-34.51-8.49-28.21-31.71,5.02-18.5,14.18-35.15,27-49.37,1.07-1.18,2.18-2.28,3.32-3.31,15.31-13.92,36.49-14.11,53.08,.52,2.65,2.34,5.14,4.78,7.51,7.31,13.31,14.2,22.32,31.38,27.36,50.49,4.07,15.39-7.21,26.01-26.85,26.52-1.29,.03-3.17-.26-5.16-.61,.09,.33,.11,.68,.12,1.04,.62,27.88-7.79,31.93-7.69,46.79,.08,11.12,6.76,54.14,18.09,52.72,11.33-1.42-13.24-21.58-.77-53.51,5-12.81,12.52-14.54,10.18-25.35-1.06-4.91-1.96-9.74-2.32-14.31-.17-2.21,1.69-4.03,3.88-3.74,3.11,.42,6.9,1.16,10.65,1.85,4.94,.91,9.82,1.75,13,1.67,31.54-.81,52.91-13.93,57.69-34.42,1.29-5.54,1.37-11.62,.11-18.14Z"/><path class="cls-4" d="M300.44,177.26c-2.83-10.72-7.29-20.64-13.46-29.47-3.77-5.39-8.19-10.37-13.28-14.86-13.67-12.05-31.41-11-43.25,2.14-1.42,1.57-2.76,3.2-4.06,4.84-7.71,9.79-13.35,20.88-16.65,33.02-4.83,17.8,3.08,26.44,21.63,24.32,.22-.02,.92-.2,1.76-.41,.78-.2,1.69-.43,2.45-.63,.84-.21,1.62,.47,1.55,1.33-.4,4.56-2.23,9.41-3.33,13.91-.45,1.85-.79,3.64-.85,5.33-.07,2.28,.62,3.53,1.7,4.27,1.33,.91,3.25,1.03,5.1,1.28,4.37,.57,4.84-2.55,4.91-5.62,.13-6.25-1.25-15.1-1.36-21.43,0-.46,.24-.9,.65-1.11,5.45-2.82,13.88-1.93,18.85,.04,.48,.19,.79,.66,.76,1.18-.24,5.83-2.81,13.75-2.78,19.12,.03,4.02,0,7.62,5.98,7.57,6.06-.05,5.73-3.96,5.83-7.79,.13-5.06-2.29-11.31-2.71-16.6-.06-.8,.61-1.46,1.4-1.35,1.33,.18,3,.52,4.59,.8,1.52,.27,2.96,.49,3.95,.47,15.06-.39,23.71-8.53,20.59-20.34Z"/></g></svg>