<?xml version="1.0" encoding="UTF-8"?><svg id="Laag_1" xmlns="http://www.w3.org/2000/svg" viewBox="0 0 512 512"><defs><style>.cls-1{fill:#fff;}</style></defs><circle class="cls-1" cx="257.18" cy="254.97" r="249.27"/><g><g><path d="M256,9.04c33.34,0,65.69,6.53,96.13,19.4,29.41,12.44,55.82,30.25,78.5,52.93,22.68,22.68,40.49,49.1,52.93,78.5,12.88,30.44,19.4,62.78,19.4,96.13s-6.53,65.69-19.4,96.13c-12.44,29.41-30.25,55.82-52.93,78.5-22.68,22.68-49.1,40.49-78.5,52.93-30.44,12.88-62.78,19.4-96.13,19.4s-65.69-6.53-96.13-19.4c-29.41-12.44-55.82-30.25-78.5-52.93-22.68-22.68-40.49-49.1-52.93-78.5-12.88-30.44-19.4-62.78-19.4-96.13s6.53-65.69,19.4-96.13c12.44-29.41,30.25-55.82,52.93-78.5,22.68-22.68,49.1-40.49,78.5-52.93,30.44-12.88,62.78-19.4,96.13-19.4M256,0C114.62,0,0,114.62,0,256s114.62,256,256,256,256-114.62,256-256S397.38,0,256,0h0Z"/><circle cx="256" cy="254.97" r="170.43"/></g><g><g><path d="M73.94,120.7c1.34-.05,2.66,.39,4.07,.68,2.64,.57,9.74,4.79,11.48,10.26,.91,1.84,1.01,3.94,1.03,6.01-.08,2.39-.59,4.7-1.77,6.9-1.22,2.26-2.29,4.43-3.85,6.48-.75,.9-.67,1.83,.25,2.6,.5,.41,5.5,3.33,7.46,4.55,1.42,.88,2.92,1.62,4.57,1.97,1.5,.45,1.89,1.47,1.08,2.92-.15,.39-.55,.73-.81,1.15-.35,.56-3.91,6.44-5.36,8.76-1.25,2.15-3.29,2.44-5.12,1.01-2.7-2.27-5.58-4.25-8.46-6.24-2.95-2.03-22.31-14.95-25.94-16.93-2.11-1.12-2.75-2.79-.81-6.06,1.25-2.15,8.53-15.95,12.93-20.63,4.38-4.49,7.47-3.44,9.24-3.42Zm-.75,24.79c.81,.5,1.25,.39,1.85-.41,.17-.28,.35-.56,.46-.89,1.05-1.98,2.01-5.19,.75-7.82-1.27-1.86-3.39-1.92-4.77-.14-1.03,1.21-1.93,2.5-2.54,4.08-.61,1.28-.56,1.5,.48,2.54,.81,.8,1.8,1.32,3.08,2.11,0,0,.36,.32,.7,.53Z"/><path d="M114.36,88.07c.66,.69,.63,1.37,.08,2.23-.54,.63-1.14,1.2-1.9,1.61-1.81,.86-3.41,2.07-4.95,3.33-1.24,.98-6.06,5.17-6.34,9.18,.23,1.32,1.19,1.72,2.42,1.09,1-.52,1.95-1.32,2.73-2.18,5.25-4.94,9.25-7.35,13.93-8.33,2.37-.52,4.54-.18,6.74,.56,1.47,.46,2.94,1.03,4.22,2,3.18,2.23,4.78,5.21,4.96,9.1,.06,2.69-.33,5.27-1.06,7.85-2.31,7.4-13.62,16.18-14.5,16.69-2.41,1.44-4.76,2.93-7.33,4.08-1.98,.8-3.7,.81-5.19-.74-1.33-1.26-2.59-2.57-3.56-4.18-1.13-1.89-3.34-5.38-3.43-5.95-.25-.97,.31-2.06,1.36-2.41,.82-.35,5.44-2.59,7.14-3.45,1.29-.69,2.63-1.21,3.76-2.18,.89-.63,1.49-1.43,1.99-2.35,.49-.8,.01-1.66-.96-1.72-.29,.06-.57,0-.81,.12-1.74,.46-3.08,.98-5.13,2.07-1.77,1.26-2.71,1.84-4.18,2.58-2.35,1.26-4.84,2.01-7.46,1.56-1.88-.28-3.69-.85-5.31-1.94-3.58-2.17-5.59-6.3-5.98-9.56-.26-1.95,.08-3.5,.73-5.22,.9-2.41,2.14-4.7,3.61-6.88,.43-.75,3.38-4.25,3.98-4.82,3.18-3.39,7.52-7.12,8.47-8.15,.48-.46,.95-.92,1.49-1.43,1.54-1.26,3.14-1.15,4.4,.28,.44,.57,.87,1.14,1.31,1.72l.06-.06c1.59,1.89,3.18,3.66,4.71,5.5Z"/><path d="M152.89,76.76c1.08,1.76,9.96,16.15,11.7,17.69,1.31,1.34,.9,2.24-.62,3.09-1.17,.63-8.27,5.2-11.08,7.12-.42,.26-.8,.59-1.16,.81-1.03,.54-2.23,.17-2.68-.87-1.23-2.79-8.14-13.82-9.45-16.1-1.69-3.06-10.07-17.11-11.88-20.19-.33-.54-.85-1.06-1.18-1.6-.36-.43-.97-1.73-.11-2.54,1.69-1.51,11.07-7.76,11.61-7.82,1.7-.4,2.23-.16,3.11,1.25,.29,.47,3.61,5.7,4.95,7.86,.8,1.46,5.36,9.01,6.78,11.3Z"/><path d="M179.55,89.26c-1.32,.5-2.63,1-3.83,1.8-.28,.19-.56,.38-.9,.43-.54,.21-1.04,.06-1.39-.4-.41-.61-.66-1.28-.76-2-.39-1.72-1.04-3.43-1.66-5.06-.73-1.93-12.58-32.59-13.41-34.99-.32-1.07-.56-3.1,1.14-3.75,1.83-.78,5.65-2.15,7.67-2.66,1.84-.53,5.15-2.3,5.84-2.57,1.34-.43,2.4,.02,2.8,1.31,1.07,3.5,7.27,22.12,8.56,25.03,.25,.42,.42,.86,.63,1.2,.52,.91,1.28,2.66,2.74,1.85,1.48-.31,6.37-2.34,8.07-3.24,.36-.22,1.95-1.17,2.36-1.24,1.27-.4,2.13,.72,2.59,1.9,.38,1.22,.95,4.82,2,7.57,.25,.42,.99,2.6,1.13,2.97,.18,.7,.5,2.95-1.2,3.6-.31,.12-16.52,5.95-17.88,6.55-1.47,.56-3.02,1.15-4.49,1.71Z"/><path d="M231.57,27.05c1.87,.25,9.13,2.31,13.9,6.44,3.21,3.04,5.02,6.82,6.29,10.98,1.15,3.86,1.8,9.14,.94,12.93-.8,3.62-2.22,7-4.51,10-2.58,3.44-5.82,6.16-10.35,7.37-3.06,.86-10.27,.56-10.79,.46-3.24-.56-6.2-1.55-8.92-3.29-2.65-1.83-5.06-3.77-7.03-6.25-1.07-1.23-1.83-2.65-2.35-4.11-.64-1.76-.95-2.92-1.74-5.3-.49-1.94-.7-2.95-.72-4.47-.1-.79-.03-1.6-.06-2.47,.06-5.53,2.11-10.58,4.28-13.25,1.87-2.39,3.06-3.58,5.05-5.03,2.59-2,6.22-3.65,9.95-3.88,1.96-.32,3.96-.33,6.08-.11Zm.52,30.42c1.44-.5,2.42-1.34,2.91-2.76,.56-1.51,.61-3.12,.43-4.61-.79-4.38-6.26-4.74-7.33-4.61-1.23,.15-2.33,.69-3.33,1.37-.61,.48-1.03,1.09-1.27,1.84-.51,1.9-.36,3.81,.37,5.64,.84,2.06,3.98,3.83,6.77,3.48,.25-.03,.82-.1,1.46-.34Z"/><path d="M280.28,27.24c2.89-.55,6.4-.64,10.1-.23,4.53,.51,7.49,1.56,8.58,2.24,.93,.58,1.25,.7,1.06,1.72-.37,1.8-.73,3.51-1.09,5.23-.56,2.73-1.03,5.48-1.17,8.18-.03,.24,.02,.56-.09,.79-.3,1.17-1.35,1.61-2.45,1.08-.39-.2-.7-.4-1.02-.59-.77-.57-1.65-.9-2.64-1.01-2.48-.2-4.87-.39-7.28,.3-1.03,.28-1.83,.75-2.5,1.48-1.6,1.66-2.7,5.53-1.48,7.98,1.08,1.56,3.73,4.65,11.1,3.56,.75,0,1.45-.32,2.13-.4,.51-.1,.94-.21,1.44-.24,.91,.02,1.58,.74,1.57,1.61-.24,3.65,.05,12.23,.06,12.87,.22,1.78-.1,2.39-1.92,2.98-1.82,.67-3.84,.77-5.76,.87-1.35,.17-7.07,.65-10.44-.53-1.62-.42-5.4-1.64-6.88-2.53-1.62-1.14-2.99-2.33-4.24-3.83-1.02-1.31-5.39-6.91-5.85-14-.14-2.49-.24-10.49,2.25-14.93,3.76-8.29,11.54-11.57,16.49-12.62Z"/><path d="M326.64,38.71c-.07,.73-.05,1.41,.06,2.12,.29,1.7,.59,3.39,.99,5.04,.08,.53,.47,.67,.91,.4,1.98-1.42,6.44-5.01,6.68-5.43,1.17-.86,1.45-1.18,2.58-.88,.34,.03,14.65,4.77,15.22,5.13,1.33,.71,1.6,1.97,.61,3.06-.36,.3-.73,.59-1.09,.88-1.74,1.25-3.56,2.47-5.33,3.8-1.17,.86-13.28,9.89-15.25,11.56-.86,.71-1.77,1.07-2.62,2.79-1.11,3.23-2.34,6.33-3.45,9.56-.82,2.4-1.49,4.86-2.16,7.32-.31,1.15-.91,1.62-2.16,1.44-.6-.04-1.15-.23-1.77-.44-.97-.25-8.02-3.17-10.05-3.86-.57-.11-1.12-.3-1.57-.54-1.2-.58-1.78-1.95-.98-3.02,1.53-1.91,5.81-12.61,7-15.82,.62-1.8,.64-3.39-.05-5.22-1.08-2.72-1.95-5.54-2.8-8.43-.61-1.8-.82-3.72-1.25-5.55-.32-1.37-.56-2.71-.77-4.13-.19-1.74-.3-3.46-.21-5.27,.03-.07,.08-.22,.05-.4,.38-1.63,1.14-2.04,2.78-1.48,1.8,.62,10.29,3.44,12.69,4.35,1.72,.59,2.17,1.33,1.94,3.02Z"/><path d="M388.82,66.99c5.92,6.12,1.54,12.55-.97,13.4-2.34,1.05-4.76,1.77-7.41,1.78-.23,.05-.52,.05-.75,.09-.45,.09-.68,.6-.37,.89,1.35,1.89,2.57,3.52,3.32,5.12,2.41,4.54,1.43,7.78-.53,11.8-1.87,2.95-4.64,5.14-6.85,5.99-2.41,1.01-4.87,1.33-7.48,1.27-1,.02-1.89-.26-2.79-.55-2.96-.75-4.05-.88-7.24-2.81-.42-.27-16.25-10.24-16.96-10.97-.71-.73-.86-1.58-.45-2.54,.33-.83,2.1-2.99,2.28-3.44,1.41-2.68,3.31-5.05,5-7.55,1.39-2.03,15.44-24.14,16.04-25.08,1.16-1.99,2.49-2.37,4.66-1.46,.46,.2,.88,.47,1.34,.67,1.05,.67,2.14,1.27,3.19,1.93,0,0,9.03,5.55,10.59,6.64,1.98,1.35,3.75,3.05,5.37,4.82Zm-30.54,20.57c-.65,1.18-.46,1.96,.73,2.72,.28,.18,.6,.29,.88,.47,1.78,.75,3.6,.97,5.42,1.19,.36,.04,.77,.02,1.15-.11,2.16-.32,2.96-2.35,1.64-4.13-.33-.4-.6-.76-1.02-1.02-.68-.62-1.48-1.22-2.28-1.82-.63-.4-1.26-.8-2.01-1-.94-.22-1.73-.06-2.38,.65-.65,.72-1.19,1.41-1.63,2.26-.17,.27-.34,.54-.51,.8Zm11.17-16.8c-.09,.13-.1,.31-.14,.38-.23,.51-.05,1,.41,1.2,1.85,.8,3.75,1.35,5.81,.59,.91-.36,1.44-.87,1.63-1.79,.19-.91-.23-1.65-.88-2.16-1.17-.93-2.63-1.11-4.03-1.53-1,.49-1.53,1.48-2.15,2.3-.13,.2-.21,.34-.3,.47-.13,.2-.25,.4-.34,.54Z"/><path d="M406.5,113.42c-1.43,1.49-13.13,13.7-14.19,15.76-.97,1.6-1.95,1.43-3.15,.17-.9-.97-7.11-6.7-9.67-8.94-.36-.34-.77-.63-1.07-.92-.78-.86-.72-2.12,.17-2.81,2.39-1.89,11.34-11.35,13.21-13.18,2.54-2.41,14.04-14.04,16.57-16.57,.44-.46,.81-1.09,1.25-1.55,.33-.46,1.43-1.38,2.44-.75,1.89,1.26,10.29,8.77,10.48,9.28,.81,1.55,.72,2.12-.43,3.32-.39,.4-4.61,4.93-6.37,6.76-1.21,1.15-7.37,7.45-9.24,9.4Z"/><path d="M421.98,139.13c-4.1,2.59-8.08,5.2-12.11,7.74-.66,.44-1.28,.94-1.9,1.45-.55,.46-1.18,.38-1.81,0-2.45-1.56-4.85-5.23-8.35-10.86-1.16-1.91-.8-3.53,1.17-4.43,1.22-.6,2.33-1.23,3.39-1.93,3.5-2.2,7.13-4.18,10.72-6.24,2.02-1.12,3.96-2.5,6-3.74,2.63-1.63,5.47-3.09,8.02-4.86,2.68-1.85,5.38-3.53,8.03-5.27,1.66-1.09,2.67-.86,3.87,.83,.64,.97,1.16,1.91,1.8,2.88,1.5,2.28,3,4.57,4.43,6.9,.32,.48,.64,.97,.82,1.54,.44,1.1,.49,2.05-.28,3.05s-1.24,2.3-1.7,3.49c-1.37,3.27-2.73,6.55-4.1,9.82-.54,1.35-1.31,2.64-1.89,3.92-.2,.42-.35,.92-.48,1.3,.02,.18,.09,.43,.18,.57,.05,.07,.22,.05,.36-.04,.44-.19,.82-.34,1.22-.6,1.59-1.05,3.28-1.95,4.87-3,1.59-1.05,6.97-4.28,7.97-4.93,.4-.26,.84-.45,1.22-.6,.55-.17,1.05,0,1.5,.4,.09,.14,.29,.3,.32,.48,.71,1.81,6.63,9.81,6.68,11.06,.07,.55-.14,1.08-.65,1.32-2.97,1.55-12.31,7.29-14.15,8.39-3.48,2.08-6.98,3.98-10.43,5.95-3.28,1.95-6.44,3.93-9.68,5.95-1,.65-1.99,1.31-2.85,2.17-1.13,1.03-3.28,1.36-4.65-.71-1.56-2.24-5.09-7.75-5.56-8.63-.8-1.36-.95-2.75-.05-4.13,.7-1.25,1.4-2.5,2.21-3.73,1.45-2.14,2.36-4.52,3.33-6.94,1.15-2.73,2.35-5.4,3.65-8.04,.17-.31,.4-.56,.3-.99-.6-.2-1.02,.18-1.42,.44Z"/></g><g><path d="M145.54,402.4c2.64,.89,5.53,2.47,8.31,4.58,3.41,2.57,5.26,4.88,5.79,5.98,.45,.94,.65,1.2-.03,1.98-1.23,1.37-2.41,2.68-3.6,3.99-1.87,2.09-3.68,4.23-5.19,6.49-.15,.19-.28,.49-.48,.64-.85,.86-1.93,.75-2.55-.23-.21-.36-.36-.68-.52-.99-.33-.85-.87-1.56-1.61-2.12-1.91-1.34-3.75-2.63-6.06-3.18-.98-.24-1.88-.22-2.79,.09-2.16,.67-5.06,3.48-5.34,6.17,.06,1.85,.61,5.76,7.15,8.31,.61,.36,1.34,.41,1.93,.66,.47,.15,.87,.26,1.29,.48,.73,.45,.9,1.38,.43,2.13-2.09,3.02-6.31,10.55-6.64,11.1-.75,1.64-1.32,2.01-3.1,1.66-1.83-.28-3.51-1.15-5.13-1.97-1.18-.49-6.07-2.78-8.19-5.39-1.09-1.13-3.52-3.96-4.27-5.43-.72-1.75-1.21-3.42-1.45-5.3-.14-1.61-.78-8.5,2.53-14.81,1.18-2.21,5.25-9.14,9.58-11.78,7.35-5.35,15.37-4.5,19.92-3.06Z"/><path d="M173.97,447.58c-.91,1.87-8.38,17.15-8.8,19.43-.46,1.82-1.4,1.98-2.83,1.2-1.08-.62-8.27-3.95-11.2-5.2-.42-.2-.87-.34-1.22-.51-.94-.55-1.22-1.75-.59-2.69,1.68-2.56,7.36-14.36,8.59-16.7,1.68-3.09,9.11-17.77,10.76-20.97,.28-.57,.46-1.29,.74-1.86,.18-.54,.95-1.76,2.03-1.5,2.06,.56,11.72,4.84,12.03,5.25,1.15,1.18,1.22,1.75,.48,3.26-.25,.5-2.91,6.13-4.03,8.43-.81,1.47-4.77,9.41-5.96,11.85Z"/><path d="M190.37,442.47c-.62-.09-1.12-.31-1.65-.45-1.1-.38-1.55-1.08-1.25-2.49,.61-3.14,1.77-6.22,3.14-9.16,.42-.96,1.21-1.49,2.35-1.26,1.65,.45,29.87,8.21,31.01,8.43,1.95,.53,2.61,1.04,2.71,1.57,.08,.6,0,1.16-.16,1.78-.58,2.41-2.34,9.21-2.49,10.33-.1,.97-1.21,1.49-2.26,1.21-1.95-.53-3.87-1.14-5.88-1.76-.67-.18-1.35-.37-2.04-.47-.62-.09-.93,.16-1.25,.74-.06,.23-5.42,19.63-6.66,24.51-.27,1-.7,4.36-1.02,4.94-.88,1.75-1.79,2.16-3.59,1.67-.15-.04-11.3-2.82-12.84-3.66-.86-.4-1.08-1.04-.83-1.96,.09-.64,.34-1.23,.58-1.83,.35-.98,.67-1.89,1-2.79,.87-2.33,3.43-10.24,3.85-11.78,.52-1.93,4.43-13.61,4.54-14.33,.29-1.08,.11-1.29-.92-1.66-1.23-.5-2.43-.83-3.75-1.02-.85-.15-1.74-.39-2.59-.54Z"/><path d="M253.93,488.72c-1.64,.25-2.69-.75-2.7-2.51,.01-.32-.54-5.7-.91-8.03-.18-1.29-.55-1.62-1.8-1.59-.39-.02-.78,.05-1.17,.03-.54-.02-.94,.28-1.35,.66-.25,.39-.57,.7-.82,1.09-.93,1.96-2.02,3.91-2.65,5.97-.27,.87-.69,1.73-1.04,2.6-.26,.71-.82,1.09-1.44,1.06-1.78-.23-15.13-.46-15.83-.49-1.55-.06-2.37-.98-2.3-2.57,.02-.48,.12-1.03,.3-1.51,.87-2.2,4.36-9.73,4.96-11.07,1.54-3.53,2.94-7.23,4.33-10.86,1.14-3.07,7.55-19.2,7.63-19.43,.47-1.98,2.06-2.79,3.77-2.8,3.5-.02,12.65,.44,13.73,.48,2.1-.07,3.67,1.35,4.45,3.38,1.26,3.41,1.97,7.04,2.83,10.59,.6,2.34,3.33,15.49,3.78,17.66,.97,4.76,2.18,9.52,3.61,14.22,.55,1.78-.44,3.18-2.31,3.18-2.25-.01-10.25-.1-11.96-.17-1.01-.04-2.02,0-3.11,.11Zm-3.34-24.76c1.24,.13,1.8-.41,1.47-1.78-.53-2.18-1.15-4.28-1.76-6.47-.14-.33-.36-.65-.75-.75-.39-.1-.63,.21-.8,.53-.6,1.41-1.2,2.83-1.8,4.24-.34,.71-.6,1.49-.79,2.21-.26,.79,.03,1.28,.8,1.47,.85,.11,1.7,.23,3.01,.44-.07-.08,.23,0,.62,.1Z"/><path d="M284.16,485.73c-.04-.89-.08-1.78-.29-2.72-.68-3.04-1.2-6.11-1.82-9.25-.82-4.4-1.58-8.89-2.42-13.37-.54-2.42-1.15-4.82-1.69-7.23-.56-2.17-1.05-4.35-1.61-6.51-.33-1.48-.66-2.96-1.29-4.38-.41-1.14,.18-2.41,1.37-2.76,.3-.07,4.47-1,6.18-1.54,1.35-.38,14.59-3.41,17.01-3.63,4.16-.27,9.94,.32,14.8,6.44,1.05,1.16,3.23,3.78,3.9,5.35,.91,1.93,1.64,3.81,2.26,5.88,1.46,5.48,1.06,10.81-.8,16.05-.28,.88-.9,1.67-1.43,2.53-1.19,1.82-7.43,8.77-18.07,12.78-1.39,.55-12.14,3.36-13.51,3.99-1.37,.63-2.49-.1-2.59-1.63Zm13.11-20.76c.67,2.3,1.65,2.74,3.69,1.22,.75-.58,1.38-1.29,2.02-2,1.52-1.73,2.34-3.79,2.29-6.16-.02-1.88-.78-3.51-1.9-4.98-.79-1.05-1.93-1.53-3.07-2.02-1.4-.59-2.97-.48-4.46-.4-.38,.08-.63,.39-.69,.81-.08,.35-.07,.75-.06,1.16,.66,3.7,1.31,7.32,1.92,11.11,.09,.39,.19,.86,.28,1.25Z"/><path d="M369.42,452.77c.49,.82,1.13,1.4,1.72,2.09,.95,1.05,.86,2.78-1.3,3.85-3.83,1.71-12.6,5.52-18.13,8.87-4.24,2.28-8.14,4.56-9.47,4.15-1.01-.3-1.79-.99-1.97-2.06-.36-1.43-5.99-12.81-8-16.71-1.24-2.51-10.38-23.29-10.98-24.15-.25-.32-.15-.82,.17-1.06,.24-.21,.56-.45,.94-.55,1.43-.62,2.89-1.16,4.35-1.71,2.54-.99,16.04-8.02,19.83-10.52,.73-.45,1.46-.9,2.33-1.06,.8-.13,1.5,.06,1.89,.85,.92,1.68,4.45,8.31,4.88,8.81,.56,.79,.46,1.46,.01,2.13-.21,.28-.49,.6-.8,.84-1.08,.8-12.91,6.12-13.88,7.13-.31,.24,.19,1.78,.54,2.32,.25,.5,.6,.68,1.05,.55,.97-.3,1.88-.57,2.71-1.16,1.25-.8,2.5-1.59,3.75-2.39,1.18-.76,2.27-.5,3.01,.83,.78,1.4,1.55,2.8,2.26,4.23,.49,.82,1.02,1.72,1.73,2.44,.95,1.05,.82,2.36-.36,3.12-.52,.35-1.15,.66-1.77,.97-1.7,.93-3.41,1.86-5.04,2.76-.35,.17-.7,.34-.9,.62-.31,.24-.41,.56-.34,.88,.21,.61,.43,1.21,.88,1.61,.28,.4,.63,.4,1.05,.19,1.11-.55,11.13-5.68,11.86-6.31,.24-.21,.97-.66,1.25-.8,.94-.38,1.33,.06,1.93,.92,.25,.5,.18,.54,.39,.97,.28,.4,.53,.9,.74,1.33,.25,.5,.53,.9,.74,1.33,.92,1.68,1.87,3.26,2.93,4.7Z"/><path d="M392.05,443.04c-1.03,.83-2.05,1.66-2.88,2.73-.19,.26-.38,.51-.68,.65-.42,.34-.93,.34-1.4,0-.57-.46-1.02-1.02-1.35-1.68-.92-1.51-2.08-2.94-3.18-4.31-1.3-1.62-22.18-27.26-23.73-29.3-.64-.92-1.53-2.77-.2-3.84,1.4-1.23,4.41-3.56,6.07-4.59,1.49-1,3.91-3.56,4.45-4,1.08-.77,2.18-.63,2.98,.47,2.12,3.01,13.9,18.85,16.03,21.24,.36,.32,.66,.7,.97,.96,.77,.71,2.04,2.15,3.1,.99,1.24-.69,5-3.93,6.25-5.24,.25-.31,1.38-1.63,1.73-1.81,1.02-.72,2.17,.1,2.97,1.09,.74,1.04,2.45,4.28,4.31,6.58,.36,.32,1.75,2.18,2.01,2.49,.39,.61,1.43,2.64,.1,3.71-.24,.2-13.01,10.08-14.05,11.02-1.15,.93-2.36,1.9-3.5,2.83Z"/></g></g></g><g><g><path class="cls-1" d="M332.23,185.9c1.06,3.23,2.04,6.5,2.91,9.81,.2,.77,.37,1.53,.51,2.28,17.72,20.95,28.54,48.1,28.54,75.72,0,29.9-12.69,56.88-33.08,76.12,.07-15.17,0-30.35-.15-45.52-.02-1.48,.16-3.16-2.1-3.21-4.63-.1-4.39-4.58-4.67-7.51-.26-2.78,.47-4.89,.69-7.16,.13-1.29,1.37-2.19,2.62-1.86,8.52,2.21,19.88-.25,25.45-5.54,.99-.94,.8-2.55-.33-3.31-9.67-6.5-13.91-17.31-19.87-26.83-.38-.61-.76-1.23-1.16-1.83-5.31-7.82-14.09-10.22-21.62-4.63-11.45,8.51-18.86,20.16-22.87,33.89-.84,2.87,.23,4.28,3.24,4.84,8.65,1.59,17.16,4.57,26.54,2.69,1.44-.29,2.74,.88,2.59,2.34-.34,3.2-1.26,5.78-1.09,9.24,.18,3.61-.93,5.75-4.13,5.57-1.33-.08-2.59,1-2.79,2.32,0,0-.5,3.83-.21,6,.29,2.17,.11,3.1-1.81,2.85l-7-.5c-.55-.07-.97-.52-1-1.08-.14-2.61-.38-2.73-.25-4.12,.13-1.39,1.8-5.48-2.57-4.68-4.37,.8-7.51-2.3-10.9-3.28-1.34-.39-5.23-2.55-2.74,1.99,2.5,4.54,1.14,9.01-.93,31.31-2.07,22.3-.3,35.54-.34,36.35-.1,1.95-1.7,3.49-3.65,3.5-2.61,.01-6.32,.04-10.59,.07-4.43,0-6.14-2.1-6.14-4.82v-16.62c0-6.45-1.71-12.78-4.95-18.36l-1.39-2.4c-.49-.85-1.72-.85-2.22,0l-1.39,2.4c-3.24,5.57-4.95,11.91-4.95,18.36v15.99c0,1.88-.1,5.44-6.15,5.63,2.96-.02,4.89-.02-.5,.02,.18,0,.33-.01,.5-.02-1.37,.01-1.74,.02-.5,.02-4.25,.03-7.97,.05-10.63,.07-2.05,.01-3.71-1.65-3.71-3.7,0-1.09,2.38-18.46-.35-36.32-2.73-17.86-2.79-29.5-1.35-32.54,1.45-3.03-1.3-2.26-2.59-1.99l-11.6,2.45c-.9,.19-1.58,.93-1.69,1.85-.19,1.64-.51,4.33-.81,6.65-.24,1.85-.1,3.23-2.18,3.23h-4.44c-1.02,0-1.93-.71-2.11-1.72-.62-3.61,1.03-8.22-3.26-9.27-1.68-.41-2.89-1.87-2.89-3.61l-1.26-13.04c0-.38,.33-.69,.71-.65,3.23,.3,6.22,.9,9.11,.59,5.72-.6,11.34-2.04,17.06-2.7,3.44-.4,4.82-1.92,3.31-4.88-4.56-8.91-8.4-18.44-14.36-26.33-12.21-16.16-25.36-14.38-34.08,3.88-3.77,7.9-7.69,15.48-15.04,20.78-3.68,2.65-2.82,5.29,1.11,6.64,7.43,2.56,14.77,6.81,23.27,3.11,1.38-.6,2.93,.45,2.95,1.96,.05,3.62,.69,6.6,.25,10.36-.13,1.06-1.59,2.69-2.58,2.8-3.82,.43-3.95,2.8-3.95,5.77,.02,14.75,.03,29.51-.11,44.26-20.22-19.23-32.8-46.1-32.8-75.86s11.92-57.46,31.23-78.79c.38-2.11,.86-4.31,1.49-6.6,.33-1.23,.69-2.46,1.06-3.68-32.53,22.15-53.73,58.83-53.73,101.85,0,70.78,57.38,125.64,128.16,125.64s128.16-54.87,128.16-125.64c0-42.22-20.42-78.33-51.92-100.6Zm-28.25,148.17c0-3.12,.83-6.19,2.4-8.89l.68-1.16c.24-.41,.83-.41,1.07,0l.68,1.16c1.57,2.7,2.4,5.77,2.4,8.89v10.66h-7.22v-10.66Zm-103.63,0c0-3.12,.83-6.19,2.4-8.89l.68-1.16c.24-.41,.83-.41,1.07,0l.68,1.16c1.57,2.7,2.4,5.77,2.4,8.89v10.66h-7.22v-10.66Z"/><path class="cls-1" d="M247.37,306.26c0-3.8-1.01-7.53-2.92-10.81l-.82-1.41c-.29-.5-1.01-.5-1.31,0l-.82,1.41c-1.91,3.28-2.92,7.02-2.92,10.81v12.97h8.78v-12.97Z"/><path class="cls-1" d="M269.74,306.26c0-3.8-1.01-7.53-2.92-10.81l-.82-1.41c-.29-.5-1.01-.5-1.31,0l-.82,1.41c-1.91,3.28-2.92,7.02-2.92,10.81v12.97h8.78v-12.97Z"/></g><g><path class="cls-1" d="M335.66,198c-.14-.75-.31-1.51-.51-2.28-.88-3.32-1.86-6.59-2.91-9.81-8.34-25.42-22.37-47.9-42.68-65.83-5.75-5.07-11.92-8.78-18.25-11.16-.62-.23-1.24-.44-1.87-.65-4.2-2.21-7.91-8.8-13.9-11.42-6.31-2.76-11.66,8.78-17.12,11.52-.45,.16-.91,.31-1.36,.48-7.71,2.93-14.96,7.9-21.24,14.87-15.9,17.66-27.49,38.19-34.24,60.92-.36,1.22-.72,2.44-1.06,3.68-.62,2.29-1.11,4.49-1.49,6.6-1.03,5.77-1.15,10.87-.39,15.28,2.63,15.16,15.92,27.28,37.94,23.46,6.35-1.1,8.43-2.82,9.05-1.84,.62,.98,.7,7.58-.23,11.77-.93,4.19,3.71,7.77,4.87,14.14,5.18,28.57-6.24,31.61-.48,32.36,7.45,.97,10.17-25.59,10.27-30.84,.1-5.21-4.8-13.01-2.31-32.79,.03-.24,.05-.48,.12-.7-.68,.17-1.24,.31-1.42,.33-14.91,1.7-21.26-5.24-17.38-19.55,3.09-11.41,8.74-21.67,16.63-30.44,.66-.73,1.34-1.4,2.04-2.04,9.43-8.58,22.48-8.7,32.7,.32,1.63,1.44,3.17,2.95,4.63,4.51,8.2,8.76,13.75,19.35,16.86,31.14,2.51,9.49-4.44,16.04-16.54,16.35-.79,.02-1.96-.16-3.18-.38,.06,.2,.07,.42,.07,.64,.38,17.19-4.8,19.69-4.74,28.85,.05,6.85,4.17,33.38,11.15,32.51,6.98-.87-8.16-13.31-.47-33,3.08-7.9,7.71-8.97,6.28-15.63-.65-3.03-1.21-6-1.43-8.83-.11-1.36,1.04-2.49,2.39-2.3,1.91,.26,4.25,.71,6.56,1.14,3.04,.56,6.05,1.08,8.01,1.03,19.43-.5,32.6-8.59,35.55-21.22,.8-3.42,.84-7.17,.07-11.19Z"/><path class="cls-1" d="M283.38,205.73c-1.74-6.61-4.49-12.73-8.3-18.17-2.33-3.32-5.05-6.4-8.18-9.17-8.42-7.43-19.35-6.78-26.65,1.32-.87,.97-1.7,1.97-2.5,2.99-4.75,6.03-8.23,12.87-10.26,20.36-2.98,10.98,1.9,16.3,13.33,15,.13-.02,.57-.12,1.09-.25,.48-.12,1.04-.27,1.51-.39,.52-.13,1,.29,.95,.82-.25,2.81-1.37,5.8-2.05,8.58-.28,1.14-.49,2.25-.52,3.29-.04,1.4,.38,2.18,1.05,2.64,.82,.56,2,.64,3.14,.79,2.69,.35,2.98-1.57,3.02-3.46,.08-3.86-.77-9.31-.84-13.21,0-.29,.15-.55,.4-.69,3.36-1.74,8.55-1.19,11.61,.02,.29,.12,.48,.41,.47,.73-.15,3.6-1.73,8.48-1.71,11.79,.02,2.48,0,4.7,3.68,4.66,3.74-.03,3.53-2.44,3.59-4.81,.08-3.12-1.41-6.97-1.67-10.24-.04-.49,.38-.9,.86-.83,.82,.11,1.85,.32,2.83,.5,.94,.17,1.83,.3,2.44,.29,9.28-.24,14.61-5.26,12.69-12.54Z"/></g></g></svg>