<?xml version="1.0" encoding="UTF-8"?><svg id="Laag_1" xmlns="http://www.w3.org/2000/svg" xmlns:xlink="http://www.w3.org/1999/xlink" viewBox="0 0 512 512"><defs><style>.cls-1{fill:url(#Naamloos_verloop_18);}.cls-2{fill:#fff;}.cls-3{fill:url(#Naamloos_verloop_123-6);}.cls-4{fill:url(#Naamloos_verloop_123-4);}.cls-5{fill:url(#Naamloos_verloop_18-3);}.cls-6{fill:url(#Naamloos_verloop_123-2);}.cls-7{fill:url(#Naamloos_verloop_123-3);}.cls-8{fill:url(#Naamloos_verloop_18-2);}.cls-9{fill:url(#Naamloos_verloop_123-5);}.cls-10{fill:url(#Naamloos_verloop_123);}.cls-11{fill:url(#Naamloos_verloop_11);}</style><linearGradient id="Naamloos_verloop_123" x1="256" y1="412.14" x2="256" y2="184.64" gradientTransform="matrix(1, 0, 0, 1, 0, 0)" gradientUnits="userSpaceOnUse"><stop offset=".14" stop-color="#ec6a25"/><stop offset=".18" stop-color="#e26523"/><stop offset=".25" stop-color="#c85a1f"/><stop offset=".33" stop-color="#9f4718"/><stop offset=".44" stop-color="#652d0f"/><stop offset=".55" stop-color="#1c0c04"/><stop offset=".59" stop-color="#000"/></linearGradient><linearGradient id="Naamloos_verloop_123-2" x1="242.98" y1="319.23" x2="242.98" y2="293.66" xlink:href="#Naamloos_verloop_123"/><linearGradient id="Naamloos_verloop_123-3" x1="265.35" y1="319.23" x2="265.35" y2="293.66" xlink:href="#Naamloos_verloop_123"/><linearGradient id="Naamloos_verloop_123-4" x1="257.18" y1="290.12" x2="257.18" y2="96.42" xlink:href="#Naamloos_verloop_123"/><linearGradient id="Naamloos_verloop_123-5" x1="255.21" y1="233.56" x2="255.21" y2="173.2" xlink:href="#Naamloos_verloop_123"/><linearGradient id="Naamloos_verloop_123-6" x1="256" y1="0" x2="256" y2="512" xlink:href="#Naamloos_verloop_123"/><linearGradient id="Naamloos_verloop_18" x1="372.32" y1="65.97" x2="380.52" y2="65.97" gradientTransform="matrix(1, 0, 0, 1, 0, 0)" gradientUnits="userSpaceOnUse"><stop offset=".14" stop-color="#ec6a25"/><stop offset=".53" stop-color="#e26624"/><stop offset=".98" stop-color="#d26024"/></linearGradient><linearGradient id="Naamloos_verloop_18-2" x1="360.72" y1="83.89" x2="371.83" y2="83.89" xlink:href="#Naamloos_verloop_18"/><linearGradient id="Naamloos_verloop_11" x1="68.18" y1="131.77" x2="68.18" y2="142.91" gradientTransform="matrix(1, 0, 0, 1, 0, 0)" gradientUnits="userSpaceOnUse"><stop offset=".14" stop-color="#ec6a25"/><stop offset=".53" stop-color="#e26624"/><stop offset="1" stop-color="#d16024"/></linearGradient><linearGradient id="Naamloos_verloop_18-3" x1="228.93" y1="40.26" x2="228.93" y2="52.97" xlink:href="#Naamloos_verloop_18"/></defs><g><g><path class="cls-2" d="M69.47,117.18c1.37-.04,2.73,.4,4.17,.7,2.71,.59,9.98,4.93,11.75,10.54,.93,1.89,1.03,4.05,1.05,6.16-.09,2.45-.61,4.82-1.82,7.07-1.26,2.32-2.35,4.54-3.95,6.64-.77,.92-.69,1.87,.26,2.66,.51,.42,5.64,3.42,7.64,4.67,1.45,.91,2.99,1.67,4.69,2.03,1.54,.46,1.94,1.51,1.11,2.99-.16,.4-.56,.75-.83,1.18-.36,.58-4.02,6.6-5.51,8.97-1.28,2.2-3.38,2.49-5.25,1.03-2.77-2.33-5.72-4.37-8.67-6.41-3.02-2.09-22.85-15.37-26.58-17.4-2.16-1.15-2.82-2.86-.82-6.22,1.28-2.2,8.77-16.35,13.29-21.13,4.5-4.6,7.67-3.52,9.48-3.49Zm-.8,25.43c.83,.52,1.28,.4,1.89-.42,.18-.29,.36-.58,.47-.91,1.08-2.03,2.07-5.31,.78-8.02-1.3-1.91-3.47-1.97-4.9-.15-1.06,1.24-1.99,2.56-2.61,4.18-.63,1.31-.58,1.54,.48,2.61,.83,.82,1.84,1.35,3.16,2.17,0,0,.37,.33,.71,.55Z"/><path class="cls-2" d="M110.95,83.8c.68,.71,.65,1.41,.08,2.29-.56,.65-1.17,1.23-1.95,1.65-1.86,.88-3.5,2.12-5.08,3.41-1.28,1-6.22,5.29-6.51,9.4,.24,1.35,1.22,1.76,2.48,1.12,1.02-.53,2-1.35,2.8-2.23,5.39-5.05,9.49-7.52,14.3-8.52,2.43-.53,4.65-.18,6.92,.59,1.51,.47,3.01,1.06,4.33,2.06,3.26,2.29,4.89,5.35,5.08,9.35,.06,2.76-.34,5.41-1.1,8.05-2.38,7.58-13.99,16.57-14.89,17.1-2.47,1.47-4.89,3-7.53,4.17-2.03,.82-3.8,.82-5.32-.76-1.36-1.29-2.65-2.65-3.64-4.29-1.15-1.94-3.42-5.52-3.51-6.11-.25-1,.32-2.12,1.4-2.47,.84-.35,5.58-2.65,7.32-3.53,1.32-.71,2.7-1.23,3.86-2.23,.91-.65,1.53-1.47,2.04-2.41,.5-.82,.01-1.7-.98-1.76-.3,.06-.59,0-.83,.12-1.78,.47-3.16,1-5.27,2.12-1.82,1.29-2.78,1.88-4.29,2.65-2.41,1.29-4.97,2.06-7.65,1.59-1.93-.29-3.79-.88-5.45-2-3.67-2.23-5.73-6.47-6.12-9.82-.27-2,.09-3.59,.75-5.35,.93-2.47,2.2-4.82,3.71-7.05,.44-.76,3.48-4.35,4.09-4.94,3.26-3.47,7.72-7.29,8.7-8.35,.49-.47,.98-.94,1.53-1.47,1.58-1.29,3.23-1.18,4.52,.29,.45,.59,.89,1.18,1.34,1.76l.06-.06c1.62,1.94,3.25,3.76,4.82,5.64Z"/><path class="cls-2" d="M150.52,72.24c1.11,1.8,10.2,16.58,11.97,18.16,1.34,1.37,.92,2.3-.64,3.17-1.2,.64-8.49,5.32-11.37,7.28-.43,.27-.83,.6-1.19,.83-1.06,.55-2.29,.17-2.74-.89-1.26-2.86-8.33-14.19-9.66-16.52-1.73-3.14-10.3-17.56-12.15-20.73-.34-.55-.87-1.09-1.21-1.65-.37-.44-.99-1.78-.11-2.61,1.74-1.55,11.36-7.94,11.92-8,1.75-.4,2.29-.17,3.19,1.29,.3,.49,3.7,5.85,5.06,8.07,.82,1.5,5.49,9.24,6.94,11.6Z"/><path class="cls-2" d="M177.82,85.11c-1.35,.51-2.7,1.02-3.93,1.84-.29,.2-.58,.39-.92,.44-.56,.21-1.07,.06-1.43-.42-.42-.62-.68-1.31-.78-2.06-.4-1.77-1.06-3.52-1.7-5.19-.75-1.98-12.86-33.45-13.71-35.91-.32-1.1-.57-3.18,1.18-3.84,1.88-.8,5.8-2.2,7.87-2.72,1.88-.54,5.28-2.35,6-2.62,1.38-.44,2.46,.02,2.87,1.35,1.09,3.59,7.43,22.7,8.74,25.69,.25,.43,.43,.88,.65,1.23,.53,.93,1.31,2.73,2.81,1.9,1.52-.31,6.54-2.39,8.28-3.31,.37-.23,2-1.19,2.43-1.27,1.3-.41,2.19,.74,2.65,1.96,.38,1.25,.97,4.95,2.04,7.76,.25,.43,1.01,2.67,1.16,3.05,.18,.72,.51,3.03-1.23,3.69-.32,.12-16.95,6.08-18.35,6.69-1.51,.57-3.1,1.17-4.6,1.75Z"/><path class="cls-2" d="M231.22,21.38c1.91,.26,9.36,2.38,14.25,6.62,3.29,3.12,5.14,7,6.43,11.27,1.17,3.96,1.84,9.37,.95,13.26-.83,3.71-2.28,7.17-4.64,10.25-2.65,3.53-5.98,6.32-10.62,7.54-3.14,.88-10.54,.56-11.07,.46-3.32-.58-6.36-1.6-9.14-3.39-2.71-1.88-5.18-3.88-7.21-6.42-1.1-1.26-1.88-2.72-2.4-4.22-.65-1.81-.97-3-1.78-5.44-.5-1.99-.71-3.03-.74-4.59-.1-.81-.03-1.64-.06-2.54,.07-5.67,2.17-10.85,4.4-13.59,1.92-2.45,3.14-3.67,5.18-5.15,2.66-2.05,6.38-3.74,10.21-3.96,2.01-.33,4.07-.34,6.23-.11Zm.5,31.2c1.48-.51,2.48-1.37,2.99-2.83,.58-1.55,.63-3.2,.44-4.73-.81-4.5-6.42-4.87-7.51-4.74-1.26,.16-2.39,.7-3.42,1.41-.62,.49-1.06,1.12-1.31,1.88-.53,1.95-.38,3.9,.37,5.78,.86,2.11,4.08,3.93,6.94,3.58,.25-.03,.84-.1,1.5-.35Z"/><path class="cls-2" d="M281.17,21.63c2.97-.57,6.57-.65,10.36-.22,4.64,.52,7.68,1.61,8.8,2.31,.96,.6,1.29,.72,1.08,1.76-.38,1.84-.75,3.6-1.12,5.36-.57,2.8-1.06,5.62-1.2,8.39-.03,.24,.02,.58-.09,.81-.31,1.19-1.38,1.65-2.52,1.11-.4-.21-.72-.41-1.04-.61-.79-.58-1.69-.93-2.7-1.04-2.54-.21-5-.4-7.47,.3-1.06,.29-1.88,.77-2.56,1.51-1.64,1.7-2.78,5.67-1.52,8.19,1.1,1.6,3.82,4.78,11.38,3.66,.77,0,1.49-.32,2.18-.41,.52-.1,.96-.22,1.48-.24,.94,.02,1.62,.76,1.61,1.66-.25,3.74,.04,12.54,.05,13.2,.22,1.83-.11,2.45-1.97,3.06-1.87,.69-3.93,.78-5.91,.89-1.39,.17-7.25,.65-10.7-.55-1.66-.43-5.53-1.69-7.05-2.6-1.66-1.17-3.06-2.4-4.34-3.93-1.04-1.35-5.52-7.1-5.98-14.36-.14-2.56-.24-10.76,2.33-15.31,3.87-8.5,11.85-11.85,16.93-12.92Z"/><path class="cls-2" d="M328.69,33.43c-.08,.75-.05,1.45,.06,2.17,.3,1.74,.6,3.48,1.01,5.17,.08,.55,.48,.68,.94,.41,2.03-1.46,6.61-5.13,6.85-5.57,1.2-.88,1.49-1.21,2.64-.9,.35,.03,15.02,4.9,15.6,5.28,1.37,.73,1.64,2.03,.63,3.14-.37,.3-.75,.6-1.12,.91-1.79,1.28-3.65,2.53-5.47,3.89-1.2,.88-13.63,10.13-15.65,11.84-.88,.73-1.81,1.1-2.69,2.86-1.14,3.31-2.41,6.49-3.55,9.8-.85,2.46-1.53,4.98-2.22,7.5-.32,1.18-.93,1.66-2.21,1.48-.62-.04-1.18-.23-1.82-.45-.99-.25-8.22-3.26-10.31-3.97-.59-.12-1.15-.31-1.61-.55-1.23-.6-1.82-2-1-3.1,1.57-1.96,5.97-12.93,7.19-16.21,.64-1.85,.66-3.48-.05-5.35-1.11-2.79-2-5.68-2.86-8.65-.62-1.85-.84-3.82-1.28-5.69-.33-1.4-.57-2.78-.79-4.23-.19-1.79-.31-3.55-.21-5.41,.03-.08,.08-.23,.05-.41,.4-1.67,1.17-2.1,2.86-1.52,1.85,.64,10.55,3.54,13.01,4.47,1.77,.61,2.22,1.37,1.99,3.09Z"/><path class="cls-2" d="M392.44,62.52c6.07,6.28,1.56,12.87-1.01,13.75-2.4,1.08-4.88,1.81-7.6,1.82-.23,.05-.53,.05-.76,.09-.46,.09-.7,.62-.38,.92,1.38,1.94,2.63,3.61,3.4,5.26,2.47,4.66,1.46,7.98-.56,12.1-1.93,3.02-4.77,5.27-7.03,6.14-2.47,1.03-4.99,1.36-7.67,1.29-1.02,.02-1.94-.27-2.86-.57-3.03-.77-4.15-.91-7.42-2.89-.43-.27-16.66-10.52-17.39-11.27-.73-.75-.88-1.62-.45-2.61,.34-.85,2.16-3.07,2.35-3.53,1.45-2.75,3.4-5.17,5.13-7.74,1.43-2.08,15.87-24.75,16.48-25.71,1.2-2.04,2.55-2.43,4.78-1.49,.47,.21,.9,.48,1.38,.68,1.07,.68,2.19,1.3,3.27,1.98,0,0,9.25,5.7,10.86,6.82,2.03,1.39,3.85,3.13,5.5,4.95Zm-31.35,21.06c-.67,1.21-.48,2.01,.74,2.79,.29,.18,.62,.3,.9,.48,1.82,.77,3.69,1,5.56,1.23,.37,.05,.79,.02,1.18-.12,2.22-.32,3.04-2.41,1.69-4.23-.34-.41-.61-.78-1.04-1.05-.7-.64-1.52-1.26-2.33-1.87-.64-.41-1.29-.82-2.07-1.03-.96-.23-1.77-.07-2.44,.67-.67,.73-1.22,1.44-1.68,2.31-.18,.28-.35,.55-.52,.82Zm11.47-17.22c-.09,.14-.1,.32-.15,.39-.23,.53-.05,1.03,.42,1.23,1.89,.82,3.85,1.39,5.96,.61,.94-.37,1.48-.89,1.67-1.83,.19-.94-.23-1.69-.9-2.22-1.2-.96-2.7-1.14-4.13-1.57-1.03,.5-1.57,1.51-2.21,2.36-.13,.21-.22,.34-.31,.48-.13,.21-.26,.41-.35,.55Z"/><path class="cls-2" d="M410.49,110.13c-1.47,1.53-13.48,14.04-14.57,16.15-.99,1.65-2,1.47-3.23,.17-.92-1-7.28-6.88-9.91-9.18-.37-.35-.79-.65-1.1-.94-.8-.88-.74-2.18,.18-2.88,2.45-1.94,11.64-11.63,13.56-13.51,2.6-2.47,14.41-14.39,17.01-16.97,.45-.47,.84-1.12,1.29-1.59,.33-.47,1.47-1.41,2.5-.76,1.94,1.29,10.55,9,10.75,9.53,.83,1.59,.74,2.18-.45,3.41-.39,.41-4.73,5.05-6.54,6.93-1.25,1.17-7.57,7.63-9.49,9.63Z"/><path class="cls-2" d="M426.34,136.52c-4.2,2.65-8.29,5.32-12.43,7.93-.68,.45-1.32,.96-1.95,1.48-.57,.47-1.21,.38-1.85,0-2.51-1.6-4.98-5.37-8.56-11.14-1.19-1.96-.82-3.63,1.21-4.55,1.25-.62,2.39-1.26,3.48-1.97,3.59-2.25,7.32-4.28,11-6.39,2.07-1.15,4.07-2.56,6.16-3.83,2.7-1.67,5.62-3.17,8.23-4.98,2.75-1.9,5.52-3.61,8.24-5.4,1.7-1.11,2.74-.88,3.97,.85,.65,.99,1.19,1.96,1.84,2.96,1.53,2.34,3.07,4.69,4.54,7.08,.33,.5,.65,.99,.84,1.58,.45,1.13,.5,2.11-.29,3.13-.79,1.02-1.28,2.36-1.75,3.58-1.4,3.35-2.81,6.71-4.21,10.07-.56,1.38-1.34,2.71-1.95,4.01-.2,.44-.36,.94-.49,1.33,.03,.19,.1,.44,.19,.59,.05,.07,.23,.05,.37-.04,.46-.2,.84-.35,1.25-.62,1.64-1.07,3.36-2,5-3.07,1.64-1.07,7.16-4.38,8.18-5.05,.41-.27,.86-.46,1.25-.62,.57-.17,1.07,0,1.54,.42,.09,.14,.3,.31,.33,.5,.73,1.86,6.79,10.07,6.85,11.35,.07,.56-.15,1.11-.67,1.35-3.05,1.59-12.64,7.46-14.52,8.59-3.57,2.13-7.16,4.08-10.71,6.09-3.36,2-6.61,4.02-9.93,6.09-1.02,.67-2.04,1.34-2.93,2.22-1.15,1.06-3.37,1.39-4.77-.74-1.6-2.3-5.21-7.96-5.7-8.85-.82-1.39-.97-2.82-.05-4.23,.72-1.28,1.44-2.56,2.27-3.82,1.49-2.19,2.42-4.63,3.42-7.11,1.18-2.8,2.41-5.54,3.75-8.24,.18-.32,.41-.57,.31-1.01-.62-.2-1.05,.18-1.46,.45Z"/></g><g><path class="cls-2" d="M139.19,403.93c2.76,.91,5.82,2.53,8.78,4.69,3.62,2.64,5.62,5.01,6.2,6.14,.5,.97,.72,1.23,.03,2.04-1.24,1.42-2.42,2.77-3.61,4.12-1.88,2.16-3.69,4.36-5.19,6.7-.14,.2-.27,.51-.48,.66-.85,.89-1.98,.77-2.66-.23-.23-.37-.4-.7-.57-1.02-.37-.88-.95-1.6-1.74-2.18-2.02-1.37-3.98-2.7-6.39-3.26-1.03-.25-1.96-.22-2.9,.1-2.22,.7-5.15,3.6-5.36,6.37,.12,1.9,.81,5.93,7.69,8.53,.64,.37,1.41,.42,2.03,.67,.49,.16,.92,.26,1.36,.49,.77,.46,.98,1.42,.52,2.19-2.08,3.12-6.23,10.88-6.55,11.45-.73,1.69-1.31,2.07-3.17,1.72-1.91-.28-3.68-1.17-5.38-2.01-1.24-.5-6.39-2.85-8.67-5.52-1.17-1.16-3.78-4.07-4.6-5.58-.81-1.8-1.37-3.52-1.67-5.45-.2-1.66-1.07-8.75,2.16-15.26,1.16-2.28,5.17-9.43,9.58-12.16,7.47-5.54,15.82-4.69,20.6-3.22Z"/><path class="cls-2" d="M170.09,450.23c-.9,1.92-8.29,17.61-8.67,19.95-.43,1.87-1.41,2.04-2.92,1.23-1.14-.63-8.73-4.02-11.82-5.29-.44-.21-.92-.34-1.29-.52-1-.56-1.32-1.79-.68-2.75,1.69-2.63,7.3-14.75,8.52-17.14,1.67-3.17,9.04-18.25,10.67-21.53,.28-.59,.44-1.32,.72-1.91,.17-.55,.94-1.81,2.08-1.54,2.16,.57,12.36,4.92,12.7,5.35,1.23,1.21,1.32,1.79,.59,3.34-.24,.52-2.87,6.3-3.98,8.66-.8,1.51-4.73,9.66-5.9,12.16Z"/><path class="cls-2" d="M187.04,444.92c-.65-.09-1.18-.31-1.73-.45-1.16-.39-1.65-1.1-1.35-2.54,.59-3.21,1.75-6.36,3.13-9.37,.43-.98,1.24-1.53,2.44-1.3,1.73,.45,31.41,8.31,32.62,8.54,2.05,.54,2.75,1.06,2.87,1.59,.09,.61,.03,1.19-.14,1.82-.56,2.46-2.3,9.42-2.43,10.56-.09,.99-1.24,1.53-2.35,1.24-2.05-.54-4.08-1.15-6.18-1.79-.71-.19-1.42-.37-2.15-.48-.65-.09-.97,.17-1.29,.76-.06,.24-5.34,20.07-6.56,25.05-.27,1.02-.66,4.46-.98,5.05-.89,1.79-1.84,2.21-3.73,1.72-.16-.04-11.88-2.86-13.51-3.71-.9-.41-1.15-1.06-.91-2.01,.09-.65,.33-1.26,.57-1.87,.35-1,.67-1.93,1-2.85,.88-2.38,3.42-10.47,3.83-12.05,.52-1.97,4.4-13.92,4.51-14.65,.29-1.1,.09-1.32-.99-1.69-1.3-.51-2.56-.84-3.94-1.03-.89-.15-1.83-.4-2.72-.54Z"/><path class="cls-2" d="M253.82,491.99c-1.72,.26-2.82-.76-2.83-2.56,.01-.33-.58-5.81-.98-8.19-.19-1.31-.59-1.65-1.89-1.62-.41-.02-.82,.05-1.22,.03-.57-.02-.99,.29-1.41,.68-.26,.4-.6,.71-.86,1.11-.98,2-2.11,3.99-2.77,6.08-.28,.89-.72,1.76-1.08,2.65-.27,.72-.86,1.11-1.51,1.08-1.87-.24-15.87-.47-16.61-.5-1.63-.06-2.49-1-2.42-2.62,.02-.49,.12-1.05,.31-1.54,.9-2.25,4.55-9.93,5.18-11.29,1.61-3.6,3.06-7.38,4.51-11.07,1.18-3.13,7.87-19.57,7.96-19.81,.49-2.02,2.15-2.85,3.94-2.86,3.67-.02,13.27,.45,14.41,.49,2.2-.08,3.86,1.38,4.67,3.45,1.33,3.48,2.08,7.17,2.99,10.8,.64,2.39,3.53,15.79,4.01,18.01,1.03,4.85,2.3,9.71,3.82,14.5,.58,1.82-.45,3.24-2.41,3.25-2.36-.01-10.75-.1-12.54-.17-1.06-.04-2.12,0-3.26,.11Zm-3.56-25.24c1.3,.13,1.89-.41,1.54-1.81-.56-2.22-1.21-4.37-1.86-6.59-.15-.33-.38-.67-.78-.76s-.66,.22-.84,.54c-.63,1.44-1.26,2.88-1.88,4.33-.35,.72-.63,1.52-.82,2.25-.28,.8,.03,1.3,.84,1.5,.89,.12,1.78,.23,3.16,.45-.08-.08,.24,0,.65,.11Z"/><path class="cls-2" d="M284.9,489.03c-.03-.91-.06-1.82-.26-2.77-.66-3.11-1.17-6.25-1.77-9.45-.79-4.49-1.53-9.08-2.34-13.66-.53-2.47-1.13-4.92-1.66-7.39-.56-2.21-1.03-4.44-1.59-6.65-.32-1.51-.65-3.03-1.29-4.47-.41-1.16,.22-2.46,1.48-2.81,.32-.07,4.7-1,6.5-1.55,1.42-.39,15.33-3.44,17.87-3.65,4.36-.26,10.4,.36,15.4,6.62,1.09,1.18,3.32,3.87,4,5.47,.92,1.97,1.66,3.89,2.28,6.01,1.45,5.6,.94,11.04-1.08,16.38-.31,.9-.97,1.71-1.53,2.58-1.27,1.85-7.92,8.94-19.12,13-1.46,.56-12.76,3.39-14.21,4.04-1.44,.64-2.6-.11-2.69-1.67Zm14.05-21.15c.67,2.35,1.68,2.8,3.85,1.26,.79-.59,1.47-1.31,2.15-2.04,1.62-1.76,2.5-3.87,2.49-6.28,0-1.92-.77-3.58-1.92-5.09-.81-1.08-2-1.57-3.19-2.07-1.46-.6-3.1-.5-4.67-.42-.4,.08-.67,.39-.74,.82-.09,.35-.09,.77-.08,1.18,.64,3.78,1.26,7.47,1.84,11.35,.08,.4,.19,.88,.27,1.27Z"/><path class="cls-2" d="M374.36,455.75c.49,.85,1.14,1.44,1.74,2.15,.96,1.07,.82,2.86-1.46,3.94-4.04,1.74-13.3,5.6-19.16,9.02-4.49,2.32-8.62,4.64-9.99,4.21-1.05-.31-1.84-1.02-2-2.12-.34-1.46-5.9-13.16-7.89-17.17-1.22-2.57-10.2-23.92-10.8-24.8-.25-.33-.13-.84,.2-1.09,.26-.21,.59-.46,.99-.56,1.51-.63,3.05-1.18,4.59-1.73,2.68-1,16.95-8.15,20.97-10.7,.77-.46,1.55-.92,2.46-1.08,.84-.13,1.56,.07,1.95,.88,.91,1.73,4.42,8.54,4.85,9.06,.57,.81,.44,1.5-.04,2.18-.22,.29-.52,.61-.85,.86-1.15,.82-13.64,6.21-14.68,7.25-.33,.25,.15,1.82,.5,2.38,.24,.51,.61,.7,1.08,.57,1.03-.31,1.98-.58,2.86-1.18,1.33-.81,2.65-1.62,3.98-2.43,1.25-.78,2.38-.5,3.12,.86,.77,1.44,1.55,2.87,2.25,4.34,.49,.85,1.02,1.77,1.74,2.51,.96,1.08,.79,2.42-.46,3.2-.55,.35-1.22,.67-1.88,.98-1.8,.95-3.61,1.9-5.34,2.81-.37,.17-.74,.35-.96,.64-.33,.25-.45,.57-.38,.9,.21,.62,.41,1.25,.88,1.66,.28,.41,.65,.41,1.09,.2,1.18-.56,11.77-5.78,12.55-6.42,.26-.21,1.03-.67,1.33-.81,.99-.38,1.38,.06,1.98,.95,.24,.51,.17,.55,.38,.99,.28,.41,.53,.92,.74,1.36,.24,.51,.53,.92,.74,1.36,.91,1.73,1.86,3.35,2.93,4.83Z"/><path class="cls-2" d="M397.9,446.02c-1.09,.85-2.19,1.7-3.08,2.81-.21,.26-.41,.53-.72,.66-.45,.35-.97,.34-1.45,0-.58-.48-1.03-1.06-1.35-1.74-.91-1.56-2.06-3.04-3.16-4.46-1.3-1.67-22.12-28.18-23.66-30.29-.64-.95-1.5-2.86-.09-3.96,1.49-1.26,4.69-3.65,6.45-4.71,1.58-1.02,4.17-3.66,4.75-4.11,1.14-.79,2.29-.64,3.07,.5,2.11,3.11,13.81,19.48,15.94,21.95,.36,.34,.66,.72,.98,.99,.78,.74,2.04,2.23,3.18,1.04,1.31-.71,5.32-4.03,6.65-5.38,.27-.31,1.49-1.67,1.86-1.86,1.08-.74,2.25,.11,3.05,1.14,.74,1.08,2.41,4.42,4.26,6.8,.36,.34,1.75,2.25,2,2.57,.39,.63,1.4,2.73-.01,3.83-.26,.2-13.83,10.34-14.93,11.3-1.22,.95-2.51,1.95-3.73,2.9Z"/></g></g><circle class="cls-2" cx="256" cy="254.97" r="170.43"/><g><g><path class="cls-10" d="M332.23,185.9c1.06,3.23,2.04,6.5,2.91,9.81,.2,.77,.37,1.53,.51,2.28,17.72,20.95,28.54,48.1,28.54,75.72,0,29.9-12.69,56.88-33.08,76.12,.07-15.17,0-30.35-.15-45.52-.02-1.48,.16-3.16-2.1-3.21-4.63-.1-4.39-4.58-4.67-7.51-.26-2.78,.47-4.89,.69-7.16,.13-1.29,1.37-2.19,2.62-1.86,8.52,2.21,19.88-.25,25.45-5.54,.99-.94,.8-2.55-.33-3.31-9.67-6.5-13.91-17.31-19.87-26.83-.38-.61-.76-1.23-1.16-1.83-5.31-7.82-14.09-10.22-21.62-4.63-11.45,8.51-18.86,20.16-22.87,33.89-.84,2.87,.23,4.28,3.24,4.84,8.65,1.59,17.16,4.57,26.54,2.69,1.44-.29,2.74,.88,2.59,2.34-.34,3.2-1.26,5.78-1.09,9.24,.18,3.61-.93,5.75-4.13,5.57-1.33-.08-2.59,1-2.79,2.32,0,0-.5,3.83-.21,6,.29,2.17,.11,3.1-1.81,2.85l-7-.5c-.55-.07-.97-.52-1-1.08-.14-2.61-.38-2.73-.25-4.12,.13-1.39,1.8-5.48-2.57-4.68-4.37,.8-7.51-2.3-10.9-3.28-1.34-.39-5.23-2.55-2.74,1.99,2.5,4.54,1.14,9.01-.93,31.31-2.07,22.3-.3,35.54-.34,36.35-.1,1.95-1.7,3.49-3.65,3.5-2.61,.01-6.32,.04-10.59,.07-4.43,0-6.14-2.1-6.14-4.82v-16.62c0-6.45-1.71-12.78-4.95-18.36l-1.39-2.4c-.49-.85-1.72-.85-2.22,0l-1.39,2.4c-3.24,5.57-4.95,11.91-4.95,18.36v15.99c0,1.88-.1,5.44-6.15,5.63,2.96-.02,4.89-.02-.5,.02,.18,0,.33-.01,.5-.02-1.37,.01-1.74,.02-.5,.02-4.25,.03-7.97,.05-10.63,.07-2.05,.01-3.71-1.65-3.71-3.7,0-1.09,2.38-18.46-.35-36.32-2.73-17.86-2.79-29.5-1.35-32.54,1.45-3.03-1.3-2.26-2.59-1.99l-11.6,2.45c-.9,.19-1.58,.93-1.69,1.85-.19,1.64-.51,4.33-.81,6.65-.24,1.85-.1,3.23-2.18,3.23h-4.44c-1.02,0-1.93-.71-2.11-1.72-.62-3.61,1.03-8.22-3.26-9.27-1.68-.41-2.89-1.87-2.89-3.61l-1.26-13.04c0-.38,.33-.69,.71-.65,3.23,.3,6.22,.9,9.11,.59,5.72-.6,11.34-2.04,17.06-2.7,3.44-.4,4.82-1.92,3.31-4.88-4.56-8.91-8.4-18.44-14.36-26.33-12.21-16.16-25.36-14.38-34.08,3.88-3.77,7.9-7.69,15.48-15.04,20.78-3.68,2.65-2.82,5.29,1.11,6.64,7.43,2.56,14.77,6.81,23.27,3.11,1.38-.6,2.93,.45,2.95,1.96,.05,3.62,.69,6.6,.25,10.36-.13,1.06-1.59,2.69-2.58,2.8-3.82,.43-3.95,2.8-3.95,5.77,.02,14.75,.03,29.51-.11,44.26-20.22-19.23-32.8-46.1-32.8-75.86s11.92-57.46,31.23-78.79c.38-2.11,.86-4.31,1.49-6.6,.33-1.23,.69-2.46,1.06-3.68-32.53,22.15-53.73,58.83-53.73,101.85,0,70.78,57.38,125.64,128.16,125.64s128.16-54.87,128.16-125.64c0-42.22-20.42-78.33-51.92-100.6Zm-28.25,148.17c0-3.12,.83-6.19,2.4-8.89l.68-1.16c.24-.41,.83-.41,1.07,0l.68,1.16c1.57,2.7,2.4,5.77,2.4,8.89v10.66h-7.22v-10.66Zm-103.63,0c0-3.12,.83-6.19,2.4-8.89l.68-1.16c.24-.41,.83-.41,1.07,0l.68,1.16c1.57,2.7,2.4,5.77,2.4,8.89v10.66h-7.22v-10.66Z"/><path class="cls-6" d="M247.37,306.26c0-3.8-1.01-7.53-2.92-10.81l-.82-1.41c-.29-.5-1.01-.5-1.31,0l-.82,1.41c-1.91,3.28-2.92,7.02-2.92,10.81v12.97h8.78v-12.97Z"/><path class="cls-7" d="M269.74,306.26c0-3.8-1.01-7.53-2.92-10.81l-.82-1.41c-.29-.5-1.01-.5-1.31,0l-.82,1.41c-1.91,3.28-2.92,7.02-2.92,10.81v12.97h8.78v-12.97Z"/></g><g><path class="cls-4" d="M335.66,198c-.14-.75-.31-1.51-.51-2.28-.88-3.32-1.86-6.59-2.91-9.81-8.34-25.42-22.37-47.9-42.68-65.83-5.75-5.07-11.92-8.78-18.25-11.16-.62-.23-1.24-.44-1.87-.65-4.2-2.21-7.91-8.8-13.9-11.42-6.31-2.76-11.66,8.78-17.12,11.52-.45,.16-.91,.31-1.36,.48-7.71,2.93-14.96,7.9-21.24,14.87-15.9,17.66-27.49,38.19-34.24,60.92-.36,1.22-.72,2.44-1.06,3.68-.62,2.29-1.11,4.49-1.49,6.6-1.03,5.77-1.15,10.87-.39,15.28,2.63,15.16,15.92,27.28,37.94,23.46,6.35-1.1,8.43-2.82,9.05-1.84,.62,.98,.7,7.58-.23,11.77-.93,4.19,3.71,7.77,4.87,14.14,5.18,28.57-6.24,31.61-.48,32.36,7.45,.97,10.17-25.59,10.27-30.84,.1-5.21-4.8-13.01-2.31-32.79,.03-.24,.05-.48,.12-.7-.68,.17-1.24,.31-1.42,.33-14.91,1.7-21.26-5.24-17.38-19.55,3.09-11.41,8.74-21.67,16.63-30.44,.66-.73,1.34-1.4,2.04-2.04,9.43-8.58,22.48-8.7,32.7,.32,1.63,1.44,3.17,2.95,4.63,4.51,8.2,8.76,13.75,19.35,16.86,31.14,2.51,9.49-4.44,16.04-16.54,16.35-.79,.02-1.96-.16-3.18-.38,.06,.2,.07,.42,.07,.64,.38,17.19-4.8,19.69-4.74,28.85,.05,6.85,4.17,33.38,11.15,32.51,6.98-.87-8.16-13.31-.47-33,3.08-7.9,7.71-8.97,6.28-15.63-.65-3.03-1.21-6-1.43-8.83-.11-1.36,1.04-2.49,2.39-2.3,1.91,.26,4.25,.71,6.56,1.14,3.04,.56,6.05,1.08,8.01,1.03,19.43-.5,32.6-8.59,35.55-21.22,.8-3.42,.84-7.17,.07-11.19Z"/><path class="cls-9" d="M283.38,205.73c-1.74-6.61-4.49-12.73-8.3-18.17-2.33-3.32-5.05-6.4-8.18-9.17-8.42-7.43-19.35-6.78-26.65,1.32-.87,.97-1.7,1.97-2.5,2.99-4.75,6.03-8.23,12.87-10.26,20.36-2.98,10.98,1.9,16.3,13.33,15,.13-.02,.57-.12,1.09-.25,.48-.12,1.04-.27,1.51-.39,.52-.13,1,.29,.95,.82-.25,2.81-1.37,5.8-2.05,8.58-.28,1.14-.49,2.25-.52,3.29-.04,1.4,.38,2.18,1.05,2.64,.82,.56,2,.64,3.14,.79,2.69,.35,2.98-1.57,3.02-3.46,.08-3.86-.77-9.31-.84-13.21,0-.29,.15-.55,.4-.69,3.36-1.74,8.55-1.19,11.61,.02,.29,.12,.48,.41,.47,.73-.15,3.6-1.73,8.48-1.71,11.79,.02,2.48,0,4.7,3.68,4.66,3.74-.03,3.53-2.44,3.59-4.81,.08-3.12-1.41-6.97-1.67-10.24-.04-.49,.38-.9,.86-.83,.82,.11,1.85,.32,2.83,.5,.94,.17,1.83,.3,2.44,.29,9.28-.24,14.61-5.26,12.69-12.54Z"/></g></g><path class="cls-3" d="M256,0C114.62,0,0,114.62,0,256S114.62,512,256,512s256-114.62,256-256S397.38,0,256,0Zm156.43,82.98c.45-.47,.84-1.12,1.29-1.59,.33-.47,1.47-1.41,2.5-.76,1.94,1.29,10.55,9,10.75,9.53,.83,1.59,.74,2.18-.45,3.41-.39,.41-4.73,5.05-6.54,6.93-1.25,1.17-7.57,7.63-9.49,9.63-1.47,1.53-13.48,14.04-14.57,16.15-.99,1.65-2,1.47-3.23,.17-.92-1-7.28-6.88-9.91-9.18-.37-.35-.79-.65-1.1-.94-.8-.88-.74-2.17,.18-2.88,2.45-1.94,11.64-11.63,13.56-13.51,2.6-2.47,14.41-14.39,17.01-16.97Zm-40.99-34.91c.47,.21,.9,.48,1.38,.68,1.07,.68,2.19,1.3,3.27,1.98,0,0,9.25,5.7,10.86,6.82,2.03,1.39,3.85,3.13,5.5,4.95,6.07,6.28,1.56,12.87-1.01,13.75-2.4,1.08-4.88,1.81-7.6,1.82-.23,.05-.53,.05-.76,.09-.46,.09-.7,.62-.38,.92,1.38,1.94,2.63,3.61,3.4,5.26,2.47,4.66,1.46,7.98-.56,12.1-1.93,3.02-4.77,5.27-7.03,6.14-2.47,1.03-4.99,1.36-7.67,1.29-1.02,.02-1.94-.27-2.86-.57-3.03-.77-4.15-.91-7.42-2.89-.43-.27-16.66-10.52-17.39-11.27-.73-.75-.88-1.62-.45-2.61,.34-.85,2.16-3.07,2.35-3.52,1.45-2.75,3.4-5.17,5.13-7.74,1.43-2.08,15.87-24.75,16.48-25.71,1.2-2.04,2.55-2.43,4.78-1.49Zm-62.66,25.27c1.57-1.96,5.97-12.93,7.19-16.21,.64-1.85,.66-3.48-.05-5.35-1.11-2.79-2-5.68-2.86-8.65-.62-1.85-.84-3.82-1.28-5.69-.33-1.4-.57-2.78-.79-4.23-.19-1.79-.31-3.55-.21-5.41,.03-.08,.08-.23,.05-.41,.4-1.67,1.17-2.1,2.86-1.52,1.85,.64,10.55,3.54,13.01,4.47,1.77,.61,2.22,1.37,1.99,3.09-.08,.75-.05,1.45,.06,2.17,.3,1.74,.6,3.48,1.01,5.17,.08,.55,.48,.68,.94,.41,2.03-1.46,6.61-5.13,6.85-5.57,1.2-.88,1.49-1.21,2.64-.9,.35,.03,15.02,4.9,15.6,5.28,1.37,.73,1.64,2.03,.63,3.14-.37,.3-.75,.6-1.12,.91-1.79,1.28-3.65,2.53-5.47,3.89-1.2,.88-13.63,10.13-15.65,11.84-.88,.73-1.81,1.1-2.69,2.86-1.14,3.31-2.41,6.49-3.55,9.8-.85,2.46-1.53,4.98-2.22,7.5-.32,1.18-.93,1.66-2.21,1.48-.62-.04-1.18-.23-1.82-.45-.99-.25-8.22-3.26-10.31-3.97-.59-.12-1.15-.31-1.61-.55-1.23-.6-1.82-2-1-3.1Zm-44.54-38.8c3.87-8.5,11.85-11.85,16.93-12.92,2.97-.57,6.57-.65,10.36-.22,4.64,.52,7.68,1.61,8.8,2.31,.96,.6,1.29,.72,1.08,1.76-.38,1.84-.75,3.6-1.12,5.36-.57,2.8-1.06,5.62-1.2,8.39-.03,.24,.02,.58-.09,.81-.31,1.19-1.38,1.65-2.52,1.11-.4-.21-.72-.41-1.04-.61-.79-.58-1.69-.93-2.7-1.04-2.54-.21-5-.4-7.47,.3-1.06,.29-1.88,.77-2.56,1.51-1.64,1.7-2.78,5.67-1.52,8.19,1.1,1.6,3.82,4.77,11.38,3.66,.77,0,1.49-.32,2.18-.41,.52-.1,.96-.22,1.48-.24,.94,.02,1.62,.76,1.61,1.66-.25,3.74,.04,12.54,.05,13.2,.22,1.83-.11,2.45-1.97,3.06-1.87,.69-3.93,.78-5.91,.89-1.39,.17-7.25,.65-10.7-.55-1.66-.43-5.53-1.69-7.05-2.6-1.66-1.17-3.06-2.4-4.34-3.93-1.04-1.35-5.52-7.1-5.98-14.36-.14-2.56-.24-10.76,2.33-15.31Zm-59.05,9.64c.07-5.67,2.17-10.85,4.4-13.59,1.92-2.45,3.14-3.67,5.18-5.15,2.66-2.05,6.38-3.74,10.21-3.96,2.01-.33,4.07-.34,6.23-.11,1.91,.26,9.36,2.38,14.25,6.62,3.29,3.12,5.14,7,6.43,11.27,1.17,3.96,1.84,9.37,.95,13.26-.83,3.71-2.28,7.17-4.64,10.25-2.65,3.53-5.98,6.32-10.62,7.54-3.14,.88-10.54,.56-11.07,.46-3.32-.58-6.36-1.6-9.14-3.39-2.71-1.88-5.18-3.88-7.21-6.42-1.1-1.26-1.88-2.72-2.4-4.22-.65-1.81-.97-3-1.78-5.44-.5-1.99-.71-3.03-.74-4.59-.1-.81-.03-1.64-.06-2.54Zm-48.67-4.23c1.88-.8,5.8-2.2,7.87-2.72,1.88-.54,5.28-2.35,6-2.62,1.38-.44,2.46,.03,2.87,1.35,1.09,3.59,7.43,22.7,8.74,25.69,.25,.43,.43,.88,.65,1.23,.53,.93,1.31,2.73,2.81,1.9,1.52-.31,6.54-2.39,8.28-3.31,.37-.23,2-1.19,2.43-1.27,1.3-.41,2.19,.74,2.65,1.96,.38,1.25,.97,4.95,2.04,7.76,.25,.43,1.01,2.67,1.16,3.05,.18,.72,.51,3.03-1.23,3.69-.32,.12-16.95,6.08-18.35,6.69-1.51,.57-3.1,1.17-4.6,1.75-1.35,.51-2.7,1.02-3.93,1.84-.29,.2-.58,.39-.92,.44-.56,.21-1.07,.06-1.43-.42-.42-.62-.68-1.31-.78-2.06-.4-1.77-1.06-3.52-1.7-5.19-.75-1.98-12.86-33.45-13.71-35.91-.32-1.1-.57-3.18,1.18-3.84Zm-33.11,19.31c1.74-1.55,11.36-7.94,11.92-8,1.75-.4,2.29-.17,3.19,1.29,.3,.49,3.7,5.85,5.06,8.07,.82,1.5,5.49,9.24,6.94,11.6,1.11,1.8,10.2,16.58,11.97,18.16,1.34,1.37,.92,2.3-.64,3.17-1.2,.64-8.49,5.32-11.37,7.28-.43,.27-.83,.6-1.19,.83-1.06,.55-2.29,.17-2.74-.89-1.26-2.86-8.33-14.19-9.66-16.52-1.73-3.14-10.3-17.56-12.15-20.73-.34-.55-.87-1.09-1.21-1.65-.37-.44-.99-1.78-.11-2.61Zm-41.22,38.68c.93-2.47,2.2-4.82,3.71-7.05,.44-.76,3.48-4.35,4.09-4.94,3.26-3.47,7.72-7.29,8.7-8.34,.49-.47,.98-.94,1.53-1.47,1.58-1.29,3.23-1.18,4.52,.29,.45,.59,.89,1.18,1.34,1.76l.06-.06c1.62,1.94,3.25,3.76,4.82,5.64,.68,.71,.65,1.41,.08,2.29-.56,.65-1.17,1.23-1.95,1.65-1.86,.88-3.5,2.12-5.08,3.41-1.28,1-6.22,5.29-6.51,9.4,.24,1.35,1.22,1.76,2.48,1.12,1.02-.53,2-1.35,2.8-2.23,5.39-5.05,9.49-7.52,14.3-8.52,2.43-.53,4.65-.18,6.92,.59,1.51,.47,3.01,1.06,4.33,2.06,3.26,2.29,4.89,5.35,5.08,9.35,.06,2.76-.34,5.41-1.1,8.05-2.38,7.58-13.99,16.57-14.89,17.1-2.47,1.47-4.89,3-7.53,4.17-2.03,.82-3.8,.82-5.32-.76-1.36-1.29-2.65-2.65-3.64-4.29-1.15-1.94-3.42-5.52-3.51-6.11-.25-1,.32-2.12,1.4-2.47,.84-.35,5.58-2.64,7.32-3.53,1.32-.7,2.7-1.23,3.86-2.23,.91-.65,1.53-1.47,2.04-2.41,.5-.82,.01-1.7-.98-1.76-.3,.06-.59,0-.83,.12-1.78,.47-3.16,1-5.27,2.11-1.82,1.29-2.78,1.88-4.29,2.64-2.41,1.29-4.97,2.06-7.65,1.59-1.93-.29-3.79-.88-5.45-2-3.67-2.23-5.73-6.47-6.12-9.82-.27-2,.09-3.58,.75-5.35Zm.59,73.87c-2.77-2.33-5.72-4.37-8.67-6.41-3.02-2.09-22.85-15.37-26.58-17.4-2.16-1.15-2.82-2.86-.82-6.22,1.28-2.2,8.77-16.35,13.29-21.13,4.5-4.6,7.67-3.52,9.48-3.49,1.37-.04,2.73,.4,4.17,.7,2.71,.59,9.98,4.93,11.75,10.54,.93,1.89,1.03,4.04,1.05,6.16-.09,2.45-.61,4.82-1.82,7.07-1.26,2.32-2.35,4.54-3.95,6.64-.77,.92-.69,1.87,.26,2.66,.51,.42,5.64,3.42,7.64,4.67,1.45,.91,2.99,1.67,4.69,2.03,1.54,.46,1.94,1.51,1.11,2.99-.16,.4-.56,.75-.83,1.18-.36,.58-4.02,6.6-5.51,8.97-1.28,2.2-3.38,2.49-5.25,1.03Zm59.48,256.22c-.23-.37-.4-.7-.57-1.02-.37-.88-.95-1.6-1.74-2.18-2.02-1.37-3.98-2.7-6.39-3.26-1.03-.25-1.96-.22-2.9,.1-2.22,.7-5.15,3.6-5.36,6.37,.12,1.9,.81,5.93,7.69,8.53,.64,.37,1.41,.42,2.03,.67,.49,.16,.92,.26,1.36,.49,.77,.46,.98,1.42,.52,2.19-2.08,3.12-6.23,10.88-6.55,11.45-.73,1.69-1.31,2.07-3.17,1.72-1.91-.28-3.68-1.17-5.38-2.01-1.24-.5-6.39-2.85-8.67-5.52-1.17-1.16-3.78-4.07-4.6-5.58-.81-1.8-1.37-3.52-1.67-5.45-.2-1.66-1.07-8.75,2.16-15.26,1.16-2.28,5.17-9.43,9.58-12.16,7.47-5.54,15.82-4.69,20.6-3.22,2.76,.91,5.82,2.53,8.78,4.69,3.62,2.64,5.62,5.01,6.2,6.14,.5,.97,.72,1.23,.03,2.04-1.24,1.42-2.42,2.77-3.61,4.12-1.88,2.16-3.69,4.36-5.19,6.7-.14,.2-.27,.51-.48,.66-.85,.89-1.98,.78-2.66-.23Zm37.73,1.37c-.24,.52-2.87,6.3-3.98,8.66-.8,1.51-4.72,9.66-5.9,12.16-.9,1.92-8.29,17.61-8.67,19.95-.43,1.87-1.41,2.04-2.92,1.24-1.14-.63-8.73-4.02-11.82-5.29-.44-.21-.92-.34-1.29-.52-1-.56-1.32-1.79-.68-2.75,1.69-2.63,7.3-14.75,8.51-17.14,1.67-3.17,9.03-18.25,10.67-21.53,.28-.59,.44-1.32,.72-1.91,.17-.55,.94-1.81,2.08-1.54,2.16,.57,12.36,4.91,12.7,5.34,1.23,1.21,1.32,1.79,.59,3.34Zm33.93,23.8c-.71-.19-1.42-.37-2.15-.48-.65-.09-.97,.17-1.29,.76-.06,.24-5.34,20.07-6.56,25.05-.27,1.02-.66,4.46-.98,5.05-.89,1.79-1.84,2.21-3.73,1.72-.16-.04-11.88-2.86-13.51-3.71-.9-.41-1.15-1.06-.91-2.01,.09-.65,.33-1.26,.57-1.87,.35-1,.67-1.93,1-2.85,.88-2.38,3.42-10.47,3.83-12.05,.52-1.97,4.4-13.92,4.51-14.65,.29-1.1,.09-1.32-.99-1.69-1.3-.51-2.56-.84-3.94-1.03-.89-.15-1.83-.4-2.72-.54-.65-.09-1.18-.31-1.73-.45-1.16-.39-1.65-1.1-1.35-2.54,.59-3.21,1.75-6.36,3.13-9.37,.43-.98,1.24-1.53,2.44-1.3,1.73,.45,31.41,8.31,32.62,8.54,2.05,.54,2.75,1.06,2.87,1.59,.09,.61,.03,1.19-.14,1.82-.56,2.46-2.3,9.42-2.43,10.56-.09,.99-1.24,1.53-2.35,1.24-2.05-.54-4.08-1.15-6.18-1.79Zm55.74,38.83c-2.36-.01-10.75-.1-12.54-.17-1.06-.04-2.12,0-3.26,.12-1.72,.26-2.82-.76-2.83-2.56,.01-.33-.59-5.81-.98-8.19-.19-1.31-.59-1.65-1.89-1.62-.41-.02-.82,.05-1.22,.03-.57-.02-.99,.29-1.41,.68-.26,.4-.6,.71-.86,1.11-.98,2-2.11,3.99-2.77,6.08-.28,.89-.72,1.76-1.08,2.65-.27,.72-.86,1.11-1.51,1.08-1.87-.24-15.87-.46-16.61-.49-1.63-.06-2.49-1-2.42-2.62,.02-.49,.12-1.05,.31-1.54,.9-2.25,4.55-9.93,5.17-11.29,1.61-3.6,3.06-7.38,4.51-11.07,1.18-3.13,7.86-19.57,7.96-19.82,.49-2.02,2.15-2.85,3.94-2.86,3.67-.02,13.27,.44,14.41,.49,2.2-.08,3.86,1.38,4.67,3.45,1.33,3.48,2.08,7.17,3,10.79,.64,2.39,3.53,15.79,4.02,18.01,1.03,4.85,2.31,9.71,3.83,14.5,.58,1.82-.45,3.24-2.41,3.25Zm52.79-20.95c-.31,.9-.97,1.71-1.53,2.58-1.27,1.85-7.92,8.94-19.12,13-1.46,.56-12.76,3.39-14.21,4.04-1.44,.64-2.6-.11-2.69-1.67-.03-.91-.06-1.82-.26-2.78-.66-3.11-1.17-6.25-1.77-9.45-.79-4.49-1.53-9.08-2.34-13.66-.53-2.47-1.13-4.92-1.66-7.39-.56-2.21-1.03-4.44-1.59-6.65-.32-1.51-.65-3.03-1.29-4.47-.41-1.16,.22-2.46,1.48-2.81,.32-.07,4.7-1,6.5-1.55,1.42-.39,15.33-3.44,17.87-3.65,4.36-.26,10.4,.36,15.4,6.62,1.09,1.18,3.32,3.87,4,5.47,.92,1.97,1.66,3.89,2.28,6.01,1.45,5.6,.94,11.04-1.08,16.38Zm52.19-9.26c-4.04,1.74-13.3,5.6-19.16,9.02-4.49,2.32-8.62,4.64-9.99,4.21-1.05-.31-1.84-1.02-2-2.12-.34-1.46-5.9-13.16-7.89-17.17-1.22-2.57-10.2-23.92-10.8-24.8-.25-.33-.13-.84,.2-1.09,.26-.21,.59-.46,.99-.56,1.51-.63,3.05-1.18,4.59-1.73,2.68-1,16.95-8.15,20.97-10.7,.77-.46,1.55-.92,2.46-1.08,.84-.13,1.56,.07,1.95,.88,.91,1.73,4.42,8.54,4.85,9.06,.57,.81,.44,1.5-.04,2.18-.22,.29-.52,.61-.85,.86-1.15,.82-13.64,6.21-14.68,7.25-.33,.25,.15,1.82,.5,2.38,.25,.51,.61,.7,1.08,.57,1.03-.31,1.98-.58,2.86-1.18,1.33-.81,2.65-1.62,3.98-2.43,1.25-.78,2.38-.5,3.12,.86,.77,1.44,1.55,2.87,2.25,4.34,.49,.85,1.02,1.77,1.74,2.51,.96,1.08,.79,2.42-.46,3.2-.55,.35-1.22,.67-1.88,.98-1.8,.95-3.61,1.9-5.34,2.81-.37,.17-.74,.35-.96,.64-.33,.25-.45,.57-.38,.9,.21,.62,.41,1.25,.88,1.66,.28,.41,.65,.41,1.09,.2,1.18-.56,11.77-5.78,12.55-6.42,.26-.21,1.03-.67,1.33-.81,.99-.38,1.38,.06,1.98,.95,.24,.51,.17,.55,.38,.99,.28,.41,.53,.92,.74,1.36,.24,.51,.53,.92,.74,1.36,.91,1.73,1.86,3.35,2.93,4.83,.49,.85,1.14,1.44,1.74,2.15,.96,1.08,.82,2.86-1.46,3.94Zm41.94-30.04c-.26,.2-13.83,10.34-14.93,11.31-1.22,.95-2.51,1.95-3.73,2.9-1.09,.85-2.19,1.7-3.08,2.81-.21,.26-.41,.53-.72,.66-.45,.35-.97,.34-1.45,0-.58-.48-1.03-1.06-1.35-1.74-.91-1.56-2.06-3.04-3.16-4.46-1.3-1.67-22.13-28.18-23.66-30.29-.64-.95-1.5-2.86-.09-3.96,1.49-1.26,4.69-3.65,6.45-4.71,1.58-1.02,4.17-3.66,4.75-4.11,1.14-.79,2.29-.64,3.07,.5,2.11,3.11,13.81,19.48,15.94,21.95,.36,.34,.66,.72,.98,.99,.78,.74,2.04,2.23,3.18,1.04,1.31-.71,5.32-4.04,6.65-5.38,.27-.31,1.49-1.67,1.86-1.86,1.08-.74,2.25,.11,3.05,1.14,.74,1.08,2.41,4.42,4.26,6.8,.36,.34,1.75,2.25,2,2.57,.39,.63,1.4,2.73-.01,3.83Zm-160.58-6.4c-94.12,0-170.43-76.3-170.43-170.43S161.88,84.55,256,84.55s170.43,76.3,170.43,170.43-76.3,170.43-170.43,170.43ZM443.84,108.53c.65,.99,1.19,1.96,1.84,2.96,1.53,2.34,3.07,4.69,4.54,7.08,.33,.5,.65,.99,.84,1.58,.45,1.13,.5,2.11-.29,3.13-.79,1.02-1.28,2.36-1.75,3.58-1.4,3.35-2.81,6.71-4.21,10.07-.56,1.38-1.34,2.71-1.95,4.01-.2,.44-.36,.94-.49,1.33,.02,.19,.1,.44,.19,.59,.05,.07,.23,.05,.37-.04,.46-.2,.84-.35,1.25-.62,1.64-1.07,3.36-2,5-3.07,1.64-1.07,7.16-4.38,8.18-5.05,.41-.27,.86-.46,1.25-.62,.57-.17,1.07,0,1.54,.42,.09,.14,.3,.31,.33,.5,.73,1.86,6.79,10.07,6.85,11.35,.07,.56-.15,1.11-.67,1.35-3.05,1.59-12.64,7.46-14.52,8.59-3.57,2.13-7.16,4.08-10.71,6.09-3.36,2-6.61,4.02-9.93,6.09-1.02,.67-2.04,1.34-2.93,2.22-1.15,1.06-3.37,1.39-4.77-.74-1.6-2.3-5.21-7.96-5.7-8.85-.82-1.39-.97-2.82-.05-4.23,.72-1.28,1.44-2.56,2.27-3.82,1.49-2.19,2.42-4.63,3.42-7.11,1.18-2.8,2.41-5.54,3.75-8.24,.18-.32,.41-.57,.31-1.01-.62-.2-1.05,.18-1.46,.45-4.2,2.65-8.29,5.32-12.43,7.93-.68,.45-1.32,.96-1.95,1.48-.57,.47-1.21,.38-1.85,0-2.51-1.6-4.98-5.37-8.56-11.14-1.19-1.96-.82-3.63,1.21-4.55,1.25-.62,2.39-1.26,3.48-1.97,3.59-2.25,7.32-4.28,11-6.39,2.07-1.15,4.07-2.56,6.16-3.83,2.7-1.67,5.62-3.17,8.23-4.98,2.75-1.9,5.52-3.61,8.24-5.4,1.7-1.11,2.74-.88,3.97,.85Z"/><path class="cls-1" d="M372.85,67.99c1.89,.82,3.85,1.39,5.96,.61,.94-.37,1.48-.89,1.67-1.83,.19-.94-.23-1.69-.9-2.22-1.2-.96-2.7-1.14-4.13-1.57-1.03,.5-1.57,1.51-2.21,2.36-.13,.21-.22,.34-.31,.48-.13,.21-.26,.41-.35,.55-.09,.14-.1,.32-.15,.39-.23,.53-.05,1.03,.42,1.23Z"/><path class="cls-8" d="M361.84,86.37c.29,.18,.62,.3,.9,.48,1.82,.78,3.69,1,5.56,1.23,.37,.05,.79,.02,1.18-.12,2.22-.32,3.04-2.41,1.69-4.23-.34-.41-.61-.78-1.04-1.05-.7-.64-1.52-1.26-2.33-1.87-.64-.41-1.29-.82-2.07-1.03-.96-.23-1.77-.07-2.44,.67-.67,.73-1.22,1.44-1.68,2.31-.18,.27-.35,.55-.52,.82-.67,1.21-.48,2.01,.74,2.79Z"/><path d="M302.33,453.67c-1.46-.6-3.1-.5-4.67-.42-.4,.08-.67,.39-.74,.82-.09,.35-.09,.77-.08,1.18,.64,3.78,1.26,7.47,1.84,11.35,.08,.4,.19,.88,.27,1.27,.67,2.35,1.68,2.8,3.85,1.26,.79-.59,1.47-1.31,2.15-2.04,1.62-1.76,2.5-3.87,2.49-6.28,0-1.92-.77-3.58-1.92-5.09-.81-1.08-2-1.57-3.19-2.07Z"/><path d="M249.96,458.34c-.15-.33-.38-.67-.78-.76-.4-.1-.66,.22-.84,.54-.63,1.44-1.25,2.88-1.88,4.33-.35,.72-.63,1.52-.82,2.25-.28,.8,.03,1.31,.84,1.5,.89,.12,1.78,.23,3.16,.45-.08-.08,.24,0,.65,.11,1.3,.13,1.89-.41,1.54-1.81-.56-2.22-1.21-4.37-1.86-6.59Z"/><path class="cls-11" d="M66.93,133.1c-1.06,1.24-1.99,2.56-2.61,4.18-.63,1.31-.58,1.54,.48,2.61,.83,.82,1.84,1.35,3.16,2.17,0,0,.37,.33,.72,.55,.83,.52,1.28,.4,1.89-.42,.18-.29,.36-.58,.47-.91,1.08-2.03,2.07-5.31,.78-8.02-1.3-1.91-3.47-1.97-4.9-.15Z"/><path class="cls-5" d="M230.23,52.92c.25-.03,.84-.1,1.5-.35,1.48-.51,2.48-1.37,2.99-2.83,.58-1.55,.63-3.2,.44-4.73-.81-4.5-6.42-4.87-7.51-4.74-1.26,.16-2.39,.7-3.42,1.41-.62,.49-1.06,1.12-1.31,1.88-.53,1.95-.38,3.9,.37,5.78,.86,2.11,4.08,3.93,6.94,3.58Z"/></svg>