<?xml version="1.0" encoding="UTF-8"?><svg id="Laag_1" xmlns="http://www.w3.org/2000/svg" viewBox="0 0 512 512"><path d="M256,0C114.62,0,0,114.62,0,256s114.62,256,256,256,256-114.62,256-256S397.38,0,256,0Zm1.18,504.25C119.51,504.25,7.91,392.64,7.91,254.97S119.51,5.7,257.18,5.7s249.27,111.6,249.27,249.27-111.6,249.27-249.27,249.27Z"/><path d="M257.18,5.7C119.51,5.7,7.91,117.3,7.91,254.97s111.6,249.27,249.27,249.27,249.27-111.6,249.27-249.27S394.85,5.7,257.18,5.7Zm173.45,424.93c-22.68,22.68-49.1,40.49-78.5,52.93-30.44,12.88-62.78,19.4-96.13,19.4s-65.69-6.53-96.13-19.4c-29.41-12.44-55.82-30.25-78.5-52.93-22.68-22.68-40.49-49.1-52.93-78.5-12.88-30.44-19.4-62.78-19.4-96.13s6.53-65.69,19.4-96.13c12.44-29.41,30.25-55.82,52.93-78.5,22.68-22.68,49.1-40.49,78.5-52.93,30.44-12.88,62.78-19.4,96.13-19.4s65.69,6.53,96.13,19.4c29.41,12.44,55.82,30.25,78.5,52.93,22.68,22.68,40.49,49.1,52.93,78.5,12.88,30.44,19.4,62.78,19.4,96.13s-6.53,65.69-19.4,96.13c-12.44,29.41-30.25,55.82-52.93,78.5Z"/><path d="M308.13,324.02c-.24-.41-.83-.41-1.07,0l-.68,1.16c-1.57,2.7-2.4,5.77-2.4,8.89v10.66h7.22v-10.66c0-3.12-.83-6.19-2.4-8.89l-.68-1.16Z"/><path d="M256,84.55c-94.12,0-170.43,76.3-170.43,170.43s76.3,170.43,170.43,170.43,170.43-76.3,170.43-170.43S350.12,84.55,256,84.55Zm0,327.6c-70.78,0-128.16-54.87-128.16-125.64,0-43.02,21.2-79.7,53.73-101.85,6.75-22.73,18.34-43.26,34.24-60.92,6.28-6.97,13.53-11.94,21.24-14.87,.45-.17,.91-.32,1.36-.48,5.46-2.74,10.81-14.28,17.12-11.52,5.99,2.62,9.69,9.21,13.9,11.42,.62,.21,1.25,.42,1.87,.65,6.34,2.38,12.51,6.08,18.25,11.16,20.32,17.93,34.34,40.41,42.68,65.83,31.5,22.27,51.92,58.38,51.92,100.6,0,70.78-57.38,125.64-128.16,125.64Z"/><path d="M335.59,209.19c-2.95,12.64-16.11,20.72-35.55,21.22-1.96,.05-4.97-.46-8.01-1.03-2.31-.43-4.65-.89-6.56-1.14-1.35-.18-2.5,.94-2.39,2.3,.22,2.82,.78,5.8,1.43,8.83,1.44,6.66-3.19,7.73-6.27,15.63-7.68,19.69,7.45,32.12,.47,33s-11.1-25.66-11.15-32.51c-.06-9.16,5.12-11.66,4.74-28.85,0-.22-.02-.44-.07-.64,1.22,.22,2.38,.4,3.18,.38,12.1-.31,19.05-6.86,16.54-16.35-3.11-11.78-8.66-22.38-16.86-31.14-1.46-1.56-3-3.07-4.63-4.51-10.22-9.02-23.27-8.9-32.7-.32-.7,.64-1.39,1.31-2.04,2.04-7.9,8.77-13.54,19.04-16.63,30.44-3.88,14.32,2.47,21.26,17.38,19.55,.17-.02,.74-.16,1.42-.33-.07,.22-.09,.46-.12,.7-2.49,19.78,2.42,27.58,2.31,32.79-.1,5.24-2.82,31.81-10.27,30.84-5.75-.75,5.66-3.79,.48-32.36-1.16-6.37-5.8-9.95-4.87-14.14,.93-4.19,.85-10.79,.23-11.77-.62-.98-2.7,.74-9.05,1.84-22.02,3.82-35.31-8.31-37.94-23.46-.76-4.4-.64-9.5,.39-15.28-19.31,21.33-31.23,49.8-31.23,78.79s12.58,56.63,32.8,75.86c.14-14.75,.13-29.51,.11-44.26,0-2.96,.13-5.34,3.95-5.77,.99-.11,2.46-1.74,2.58-2.8,.44-3.76-.2-6.74-.25-10.36-.02-1.51-1.56-2.56-2.95-1.96-8.5,3.7-15.84-.56-23.27-3.11-3.93-1.35-4.79-3.99-1.11-6.64,7.35-5.29,11.27-12.88,15.04-20.78,8.72-18.26,21.87-20.04,34.08-3.88,5.96,7.89,9.8,17.42,14.36,26.33,1.51,2.96,.14,4.48-3.31,4.88-5.71,.66-11.34,2.09-17.06,2.7-2.89,.31-5.88-.29-9.11-.59-.38-.04-.71,.27-.71,.65l1.26,13.04c0,1.73,1.21,3.19,2.89,3.61,4.28,1.05,2.64,5.66,3.26,9.27,.17,1.01,1.09,1.72,2.11,1.72h4.44c2.08,0,1.94-1.38,2.18-3.23,.3-2.32,.62-5.01,.81-6.65,.11-.92,.79-1.65,1.69-1.85l11.6-2.45c1.29-.27,4.04-1.04,2.59,1.99-1.45,3.03-1.38,14.68,1.35,32.54,2.73,17.86,.35,35.23,.35,36.32,0,2.05,1.66,3.71,3.71,3.7,2.66-.01,6.39-.04,10.63-.07-1.23,0-.87,0,.5-.02,6.05-.19,6.15-3.75,6.15-5.63v-15.99c0-6.45,1.71-12.78,4.95-18.36l1.39-2.4c.49-.85,1.72-.85,2.22,0l1.39,2.4c3.24,5.57,4.95,11.91,4.95,18.36v16.62c0,2.72,1.71,4.82,6.14,4.82,4.26-.03,7.97-.05,10.59-.07,1.96-.01,3.55-1.55,3.65-3.5,.04-.81-1.73-14.05,.34-36.35,2.07-22.3,3.43-26.77,.93-31.31-2.5-4.54,1.39-2.38,2.74-1.99,3.4,.98,6.54,4.09,10.9,3.28,4.37-.8,2.7,3.29,2.57,4.68-.13,1.39,.11,1.51,.25,4.12,.03,.55,.45,1.01,1,1.08l7,.5c1.92,.25,2.1-.68,1.81-2.85-.29-2.17,.21-6,.21-6,.2-1.32,1.46-2.4,2.79-2.32,3.2,.19,4.31-1.95,4.13-5.57-.17-3.46,.75-6.05,1.09-9.24,.15-1.46-1.14-2.63-2.59-2.34-9.38,1.89-17.89-1.09-26.54-2.69-3.01-.55-4.07-1.96-3.24-4.84,4.01-13.73,11.42-25.39,22.87-33.89,7.52-5.59,16.31-3.19,21.62,4.63,.41,.6,.78,1.22,1.16,1.83,5.96,9.52,10.2,20.33,19.87,26.83,1.13,.76,1.31,2.38,.33,3.31-5.57,5.29-16.92,7.75-25.45,5.54-1.25-.32-2.5,.58-2.62,1.86-.22,2.27-.95,4.39-.69,7.16,.28,2.94,.04,7.41,4.67,7.51,2.25,.05,2.08,1.74,2.1,3.21,.16,15.17,.22,30.34,.15,45.52,20.38-19.24,33.08-46.22,33.08-76.12,0-27.62-10.82-54.76-28.54-75.72,.77,4.02,.73,7.77-.07,11.19Zm-88.23,110.05h-8.78v-12.97c0-3.8,1.01-7.53,2.92-10.81l.82-1.41c.29-.5,1.01-.5,1.31,0l.82,1.41c1.91,3.28,2.92,7.02,2.92,10.81v12.97Zm11.59-90.54c-.02-3.31,1.56-8.19,1.71-11.79,.01-.32-.18-.61-.47-.73-3.06-1.21-8.26-1.76-11.61-.02-.25,.13-.41,.4-.4,.69,.07,3.9,.91,9.36,.84,13.21-.04,1.89-.33,3.82-3.02,3.46-1.14-.15-2.33-.23-3.14-.79-.67-.46-1.09-1.23-1.05-2.64,.03-1.04,.24-2.15,.52-3.29,.68-2.78,1.81-5.76,2.05-8.58,.05-.53-.44-.95-.95-.82-.47,.12-1.03,.26-1.51,.39-.52,.13-.95,.24-1.09,.25-11.43,1.31-16.31-4.02-13.33-15,2.03-7.49,5.5-14.33,10.26-20.36,.8-1.02,1.63-2.02,2.5-2.99,7.3-8.1,18.23-8.75,26.65-1.32,3.14,2.77,5.86,5.84,8.18,9.17,3.81,5.44,6.55,11.56,8.3,18.17,1.92,7.28-3.41,12.3-12.69,12.54-.61,.02-1.5-.12-2.44-.29-.98-.18-2.01-.39-2.83-.5-.49-.07-.9,.34-.86,.83,.26,3.26,1.75,7.11,1.67,10.24-.06,2.36,.14,4.77-3.59,4.81-3.68,.03-3.66-2.19-3.68-4.66Zm10.78,90.54h-8.78v-12.97c0-3.8,1.01-7.53,2.92-10.81l.82-1.41c.29-.5,1.01-.5,1.31,0l.82,1.41c1.91,3.28,2.92,7.02,2.92,10.81v12.97Z"/><path d="M242.31,371.89c-.17,0-.32,.02-.5,.02,5.39-.04,3.47-.04,.5-.02Z"/><path d="M204.5,324.02c-.24-.41-.83-.41-1.07,0l-.68,1.16c-1.57,2.7-2.4,5.77-2.4,8.89v10.66h7.22v-10.66c0-3.12-.83-6.19-2.4-8.89l-.68-1.16Z"/><path d="M92.1,172.96c1.44-2.32,5.01-8.2,5.36-8.76,.26-.42,.66-.76,.81-1.15,.81-1.45,.42-2.47-1.08-2.92-1.65-.35-3.16-1.09-4.57-1.97-1.95-1.22-6.96-4.14-7.46-4.55-.92-.77-1-1.7-.25-2.6,1.56-2.05,2.62-4.22,3.85-6.48,1.18-2.19,1.68-4.51,1.77-6.9-.03-2.06-.12-4.17-1.03-6.01-1.74-5.47-8.84-9.69-11.48-10.26-1.41-.29-2.73-.72-4.07-.68-1.76-.02-4.85-1.07-9.24,3.42-4.4,4.67-11.68,18.47-12.93,20.63-1.95,3.28-1.3,4.94,.81,6.06,3.64,1.97,23,14.9,25.94,16.93,2.88,1.99,5.76,3.97,8.46,6.24,1.82,1.43,3.87,1.14,5.12-1.01Zm-16.61-28.77c-.11,.32-.28,.6-.46,.89-.59,.8-1.04,.92-1.85,.41-.34-.21-.7-.53-.7-.53-1.28-.8-2.27-1.31-3.08-2.11-1.04-1.04-1.09-1.26-.48-2.54,.6-1.57,1.5-2.87,2.54-4.08,1.38-1.77,3.5-1.72,4.77,.14,1.26,2.64,.29,5.84-.75,7.82Z"/><path d="M91.58,116.7c1.62,1.09,3.43,1.66,5.31,1.94,2.62,.45,5.12-.29,7.46-1.56,1.46-.75,2.4-1.32,4.18-2.58,2.05-1.09,3.39-1.61,5.13-2.07,.23-.11,.52-.06,.81-.12,.97,.06,1.45,.92,.96,1.72-.5,.92-1.1,1.72-1.99,2.35-1.13,.98-2.47,1.49-3.76,2.18-1.7,.86-6.32,3.1-7.14,3.45-1.05,.35-1.61,1.43-1.36,2.41,.09,.57,2.3,4.07,3.43,5.95,.97,1.6,2.23,2.92,3.56,4.18,1.49,1.55,3.21,1.54,5.19,.74,2.57-1.15,4.92-2.64,7.33-4.08,.88-.52,12.19-9.3,14.5-16.69,.74-2.58,1.13-5.16,1.06-7.85-.19-3.9-1.79-6.87-4.96-9.1-1.28-.97-2.75-1.54-4.22-2-2.21-.74-4.37-1.08-6.74-.56-4.69,.98-8.68,3.39-13.93,8.33-.78,.86-1.73,1.66-2.73,2.18-1.23,.63-2.19,.23-2.42-1.09,.28-4.01,5.09-8.2,6.34-9.18,1.54-1.26,3.14-2.47,4.95-3.33,.76-.4,1.36-.98,1.9-1.61,.55-.86,.58-1.55-.08-2.23-1.53-1.83-3.12-3.61-4.71-5.5l-.06,.06c-.44-.57-.87-1.14-1.31-1.72-1.26-1.43-2.86-1.54-4.4-.28-.54,.52-1.01,.98-1.49,1.43-.96,1.03-5.3,4.76-8.47,8.15-.6,.57-3.55,4.07-3.98,4.82-1.47,2.18-2.71,4.47-3.61,6.88-.64,1.72-.99,3.27-.73,5.22,.38,3.27,2.4,7.39,5.98,9.56Z"/><path d="M127.73,68.31c1.81,3.08,10.18,17.13,11.88,20.19,1.31,2.27,8.21,13.31,9.45,16.1,.44,1.03,1.65,1.41,2.68,.87,.35-.22,.73-.55,1.16-.81,2.8-1.92,9.91-6.49,11.08-7.12,1.52-.85,1.93-1.75,.62-3.09-1.73-1.54-10.61-15.94-11.7-17.69-1.42-2.3-5.98-9.84-6.78-11.3-1.33-2.16-4.66-7.39-4.95-7.86-.88-1.42-1.41-1.65-3.11-1.25-.55,.06-9.92,6.31-11.61,7.82-.86,.81-.25,2.11,.11,2.54,.33,.54,.85,1.06,1.18,1.6Z"/><path d="M171,84.02c.62,1.63,1.27,3.34,1.66,5.06,.1,.73,.35,1.39,.76,2,.35,.46,.85,.61,1.39,.4,.34-.04,.62-.24,.9-.43,1.2-.8,2.52-1.3,3.83-1.8,1.47-.56,3.02-1.15,4.49-1.71,1.36-.6,17.57-6.43,17.88-6.55,1.7-.65,1.38-2.9,1.2-3.6-.14-.37-.88-2.55-1.13-2.97-1.05-2.75-1.62-6.35-2-7.57-.45-1.19-1.32-2.3-2.59-1.9-.41,.07-2,1.02-2.36,1.24-1.7,.9-6.59,2.93-8.07,3.24-1.46,.81-2.22-.94-2.74-1.85-.22-.34-.39-.79-.63-1.2-1.29-2.91-7.49-21.53-8.56-25.03-.4-1.29-1.46-1.74-2.8-1.31-.7,.27-4.01,2.04-5.84,2.57-2.02,.51-5.84,1.88-7.67,2.66-1.7,.65-1.46,2.68-1.14,3.75,.83,2.4,12.68,33.07,13.41,34.99Z"/><path d="M206.28,51.79c.02,1.52,.23,2.53,.72,4.47,.8,2.38,1.11,3.54,1.74,5.3,.51,1.46,1.28,2.88,2.35,4.11,1.98,2.48,4.39,4.42,7.03,6.25,2.72,1.74,5.68,2.74,8.92,3.29,.51,.1,7.72,.4,10.79-.46,4.52-1.2,7.77-3.93,10.35-7.37,2.3-3.01,3.71-6.38,4.51-10,.86-3.79,.21-9.07-.94-12.93-1.27-4.16-3.07-7.94-6.29-10.98-4.77-4.13-12.03-6.19-13.9-6.44-2.11-.22-4.11-.21-6.08,.11-3.73,.22-7.36,1.87-9.95,3.88-1.99,1.45-3.18,2.64-5.05,5.03-2.17,2.67-4.21,7.72-4.28,13.25,.03,.88-.04,1.69,.06,2.47Zm17.22-3.1c.24-.75,.66-1.36,1.27-1.84,1-.68,2.1-1.22,3.33-1.37,1.07-.13,6.54,.23,7.33,4.61,.19,1.5,.14,3.1-.43,4.61-.49,1.42-1.47,2.26-2.91,2.76-.64,.24-1.21,.31-1.46,.34-2.79,.35-5.93-1.42-6.77-3.48-.73-1.83-.88-3.73-.37-5.64Z"/><path d="M267.38,68.78c1.25,1.5,2.61,2.69,4.24,3.83,1.48,.89,5.26,2.11,6.88,2.53,3.37,1.18,9.09,.7,10.44,.53,1.93-.1,3.94-.2,5.76-.87,1.82-.6,2.13-1.2,1.92-2.98-.01-.64-.3-9.22-.06-12.87,.01-.88-.65-1.59-1.57-1.61-.5,.02-.93,.14-1.44,.24-.68,.08-1.38,.4-2.13,.4-7.37,1.09-10.02-2-11.1-3.56-1.22-2.45-.12-6.33,1.48-7.98,.66-.72,1.47-1.19,2.5-1.48,2.41-.69,4.8-.5,7.28-.3,.99,.11,1.87,.45,2.64,1.01,.31,.19,.62,.39,1.02,.59,1.11,.52,2.16,.08,2.45-1.08,.11-.23,.06-.55,.09-.79,.14-2.7,.61-5.44,1.17-8.18,.36-1.72,.72-3.44,1.09-5.23,.2-1.02-.12-1.13-1.06-1.72-1.09-.68-4.05-1.73-8.58-2.24-3.7-.41-7.21-.33-10.1,.23-4.95,1.04-12.73,4.33-16.49,12.62-2.5,4.43-2.39,12.44-2.25,14.93,.46,7.08,4.83,12.68,5.85,14Z"/><path d="M308.24,80.66c.44,.24,.99,.42,1.57,.54,2.04,.7,9.09,3.62,10.05,3.86,.63,.21,1.17,.4,1.77,.44,1.25,.18,1.85-.29,2.16-1.44,.67-2.46,1.33-4.91,2.16-7.32,1.11-3.23,2.34-6.33,3.45-9.56,.85-1.72,1.76-2.08,2.62-2.79,1.97-1.67,14.08-10.7,15.25-11.56,1.77-1.33,3.59-2.55,5.33-3.8,.36-.29,.73-.59,1.09-.88,.99-1.09,.72-2.36-.61-3.06-.58-.36-14.88-5.1-15.22-5.13-1.12-.3-1.41,.02-2.58,.88-.23,.42-4.7,4.01-6.68,5.43-.44,.27-.83,.13-.91-.4-.4-1.65-.69-3.34-.99-5.04-.11-.71-.14-1.39-.06-2.12,.23-1.68-.22-2.43-1.94-3.02-2.4-.91-10.89-3.73-12.69-4.35-1.65-.56-2.4-.15-2.78,1.48,.03,.18-.02,.33-.05,.4-.1,1.81,.02,3.53,.21,5.27,.21,1.42,.46,2.76,.77,4.13,.43,1.82,.64,3.75,1.25,5.55,.85,2.89,1.72,5.71,2.8,8.43,.69,1.83,.67,3.42,.05,5.22-1.19,3.2-5.47,13.91-7,15.82-.8,1.07-.22,2.44,.98,3.02Z"/><path d="M342.63,87.02c-.19,.45-1.95,2.61-2.28,3.44-.41,.96-.26,1.81,.45,2.54,.71,.73,16.54,10.7,16.96,10.97,3.19,1.93,4.28,2.06,7.24,2.81,.9,.29,1.79,.57,2.79,.55,2.61,.06,5.07-.26,7.48-1.27,2.21-.85,4.98-3.05,6.85-5.99,1.97-4.02,2.94-7.25,.53-11.8-.75-1.6-1.97-3.23-3.32-5.12-.31-.29-.08-.8,.37-.89,.23-.05,.52-.05,.75-.09,2.65,0,5.07-.73,7.41-1.78,2.5-.85,6.89-7.29,.97-13.4-1.62-1.78-3.39-3.47-5.37-4.82-1.56-1.09-10.59-6.64-10.59-6.64-1.05-.67-2.14-1.27-3.19-1.93-.46-.2-.88-.47-1.34-.67-2.17-.91-3.49-.53-4.66,1.46-.6,.94-14.65,23.05-16.04,25.08-1.69,2.5-3.59,4.87-5,7.55Zm26.67-15.88c.04-.07,.06-.25,.14-.38,.09-.13,.21-.34,.34-.54,.09-.13,.17-.27,.3-.47,.62-.83,1.15-1.81,2.15-2.3,1.4,.42,2.86,.59,4.03,1.53,.66,.51,1.07,1.25,.88,2.16-.19,.91-.71,1.43-1.63,1.79-2.05,.76-3.96,.21-5.81-.59-.46-.2-.64-.69-.41-1.2Zm-11.02,16.42c.17-.27,.34-.54,.51-.8,.44-.85,.98-1.54,1.63-2.26,.65-.72,1.44-.87,2.38-.65,.76,.2,1.39,.6,2.01,1,.8,.6,1.59,1.2,2.28,1.82,.42,.27,.68,.62,1.02,1.02,1.32,1.78,.52,3.81-1.64,4.13-.38,.13-.79,.16-1.15,.11-1.82-.22-3.65-.44-5.42-1.19-.28-.18-.6-.29-.88-.47-1.19-.75-1.38-1.53-.73-2.72Z"/><path d="M378.59,116.69c-.89,.69-.95,1.95-.17,2.81,.3,.29,.71,.57,1.07,.92,2.56,2.23,8.76,7.96,9.67,8.94,1.2,1.26,2.18,1.43,3.15-.17,1.06-2.06,12.76-14.27,14.19-15.76,1.87-1.95,8.03-8.25,9.24-9.4,1.76-1.83,5.98-6.36,6.37-6.76,1.15-1.2,1.24-1.78,.43-3.32-.19-.52-8.6-8.02-10.48-9.28-1-.63-2.11,.29-2.44,.75-.44,.46-.81,1.09-1.25,1.55-2.53,2.52-14.03,14.16-16.57,16.57-1.87,1.83-10.83,11.29-13.21,13.18Z"/><path d="M455.25,137.01c-.02-.18-.23-.35-.32-.48-.45-.4-.94-.57-1.5-.4-.38,.15-.82,.34-1.22,.6-1,.65-6.38,3.89-7.97,4.93-1.59,1.05-3.28,1.95-4.87,3-.4,.26-.78,.41-1.22,.6-.13,.09-.31,.1-.36,.04-.09-.14-.16-.39-.18-.57,.13-.38,.28-.88,.48-1.3,.59-1.28,1.35-2.57,1.89-3.92,1.37-3.27,2.73-6.55,4.1-9.82,.45-1.19,.93-2.49,1.7-3.49s.71-1.95,.28-3.05c-.19-.57-.5-1.06-.82-1.54-1.43-2.33-2.93-4.61-4.43-6.9-.64-.97-1.16-1.91-1.8-2.88-1.2-1.69-2.21-1.92-3.87-.83-2.66,1.74-5.36,3.41-8.03,5.27-2.54,1.77-5.38,3.23-8.02,4.86-2.04,1.24-3.98,2.61-6,3.74-3.59,2.06-7.22,4.04-10.72,6.24-1.06,.7-2.17,1.32-3.39,1.93-1.97,.9-2.33,2.52-1.17,4.43,3.5,5.62,5.91,9.29,8.35,10.86,.63,.38,1.25,.46,1.81,0,.62-.5,1.24-1.01,1.9-1.45,4.03-2.54,8.01-5.16,12.11-7.74,.4-.26,.82-.64,1.42-.44,.09,.43-.13,.68-.3,.99-1.31,2.64-2.5,5.3-3.65,8.04-.98,2.42-1.88,4.8-3.33,6.94-.81,1.23-1.51,2.48-2.21,3.73-.9,1.38-.75,2.77,.05,4.13,.48,.87,4,6.39,5.56,8.63,1.36,2.08,3.52,1.75,4.65,.71,.86-.86,1.86-1.51,2.85-2.17,3.23-2.02,6.4-4,9.68-5.95,3.46-1.97,6.96-3.87,10.43-5.95,1.84-1.11,11.18-6.84,14.15-8.39,.51-.24,.73-.77,.65-1.32-.06-1.25-5.97-9.25-6.68-11.06Z"/><path d="M150.82,425.41c1.51-2.26,3.32-4.4,5.19-6.49,1.18-1.31,2.37-2.62,3.6-3.99,.69-.78,.49-1.03,.03-1.98-.53-1.1-2.39-3.41-5.79-5.98-2.79-2.11-5.68-3.69-8.31-4.58-4.55-1.44-12.57-2.29-19.92,3.06-4.33,2.64-8.4,9.57-9.58,11.78-3.31,6.31-2.67,13.2-2.53,14.81,.24,1.88,.72,3.55,1.45,5.3,.74,1.46,3.17,4.3,4.27,5.43,2.12,2.6,7,4.89,8.19,5.39,1.62,.82,3.3,1.69,5.13,1.97,1.78,.35,2.35-.02,3.1-1.66,.32-.56,4.55-8.08,6.64-11.1,.47-.75,.3-1.68-.43-2.13-.42-.22-.83-.32-1.29-.48-.59-.25-1.33-.3-1.93-.66-6.54-2.54-7.09-6.46-7.15-8.31,.28-2.69,3.18-5.5,5.34-6.17,.91-.31,1.81-.33,2.79-.09,2.31,.55,4.16,1.84,6.06,3.18,.74,.56,1.28,1.27,1.61,2.12,.15,.31,.3,.63,.52,.99,.63,.97,1.71,1.09,2.55,.23,.21-.14,.34-.45,.48-.64Z"/><path d="M171.44,418.79c-1.08-.26-1.85,.96-2.03,1.5-.28,.57-.46,1.29-.74,1.86-1.65,3.2-9.08,17.88-10.76,20.97-1.23,2.33-6.9,14.14-8.59,16.7-.63,.94-.35,2.14,.59,2.69,.35,.17,.8,.3,1.22,.51,2.93,1.25,10.12,4.58,11.2,5.2,1.43,.79,2.37,.63,2.83-1.2,.42-2.28,7.89-17.57,8.8-19.43,1.19-2.44,5.15-10.37,5.96-11.85,1.12-2.3,3.79-7.93,4.03-8.43,.74-1.51,.67-2.07-.48-3.26-.31-.42-9.98-4.69-12.03-5.25Z"/><path d="M224.04,451.21c.14-1.12,1.91-7.92,2.49-10.33,.17-.62,.24-1.18,.16-1.78-.1-.52-.76-1.04-2.71-1.57-1.14-.23-29.36-7.99-31.01-8.43-1.15-.23-1.93,.3-2.35,1.26-1.36,2.94-2.52,6.02-3.14,9.16-.3,1.41,.15,2.11,1.25,2.49,.52,.14,1.03,.36,1.65,.45,.85,.15,1.74,.39,2.59,.54,1.32,.19,2.51,.52,3.75,1.02,1.03,.36,1.21,.58,.92,1.66-.11,.71-4.02,12.4-4.54,14.33-.42,1.54-2.97,9.45-3.85,11.78-.33,.9-.65,1.81-1,2.79-.24,.6-.49,1.19-.58,1.83-.25,.92-.02,1.57,.83,1.96,1.54,.83,12.69,3.62,12.84,3.66,1.8,.49,2.71,.08,3.59-1.67,.32-.58,.75-3.93,1.02-4.94,1.25-4.88,6.6-24.28,6.66-24.51,.32-.58,.63-.82,1.25-.74,.7,.11,1.37,.29,2.04,.47,2,.63,3.93,1.23,5.88,1.76,1.05,.29,2.16-.24,2.26-1.21Z"/><path d="M267.69,471.37c-.45-2.18-3.18-15.32-3.78-17.66-.86-3.55-1.57-7.18-2.83-10.59-.77-2.03-2.35-3.45-4.45-3.38-1.09-.04-10.24-.5-13.73-.48-1.71,0-3.3,.82-3.77,2.8-.09,.24-6.5,16.36-7.63,19.43-1.39,3.62-2.79,7.32-4.33,10.86-.6,1.33-4.09,8.87-4.96,11.07-.17,.47-.28,1.03-.3,1.51-.06,1.6,.75,2.51,2.3,2.57,.7,.03,14.05,.25,15.83,.49,.62,.03,1.18-.35,1.44-1.06,.35-.87,.77-1.73,1.04-2.6,.63-2.05,1.72-4.01,2.65-5.97,.25-.39,.57-.7,.82-1.09,.4-.38,.8-.69,1.35-.66,.39,.02,.78-.05,1.17-.03,1.25-.03,1.62,.31,1.8,1.59,.37,2.33,.93,7.71,.91,8.03,0,1.76,1.05,2.76,2.7,2.51,1.09-.12,2.1-.15,3.11-.11,1.71,.07,9.71,.16,11.96,.17,1.87,0,2.85-1.4,2.31-3.18-1.44-4.7-2.64-9.46-3.61-14.22Zm-17.1-7.41c-.38-.1-.69-.19-.62-.1-1.31-.21-2.16-.33-3.01-.44-.77-.19-1.06-.68-.8-1.47,.19-.71,.45-1.5,.79-2.21,.6-1.41,1.2-2.83,1.8-4.24,.17-.31,.41-.62,.8-.53,.38,.1,.6,.42,.75,.75,.61,2.18,1.22,4.29,1.76,6.47,.33,1.37-.23,1.91-1.47,1.78Z"/><path d="M318.29,446.13c-.67-1.57-2.84-4.19-3.9-5.35-4.86-6.12-10.64-6.71-14.8-6.44-2.42,.21-15.66,3.24-17.01,3.63-1.71,.54-5.88,1.47-6.18,1.54-1.2,.35-1.79,1.63-1.37,2.76,.63,1.41,.96,2.9,1.29,4.38,.56,2.17,1.05,4.35,1.61,6.51,.54,2.42,1.15,4.82,1.69,7.23,.84,4.48,1.6,8.97,2.42,13.37,.62,3.13,1.15,6.21,1.82,9.25,.21,.94,.25,1.83,.29,2.72,.1,1.53,1.22,2.26,2.59,1.63,1.37-.63,12.12-3.44,13.51-3.99,10.64-4.01,16.89-10.96,18.07-12.78,.53-.85,1.14-1.65,1.43-2.53,1.85-5.24,2.26-10.57,.8-16.05-.62-2.07-1.36-3.95-2.26-5.88Zm-15.3,18.06c-.64,.71-1.27,1.43-2.02,2-2.05,1.52-3.02,1.08-3.69-1.22-.09-.39-.19-.86-.28-1.25-.61-3.79-1.25-7.41-1.92-11.11-.01-.41-.02-.81,.06-1.16,.06-.42,.32-.72,.69-.81,1.49-.09,3.06-.19,4.46,.4,1.14,.48,2.28,.96,3.07,2.02,1.12,1.47,1.88,3.1,1.9,4.98,.05,2.36-.76,4.43-2.29,6.16Z"/><path d="M369.42,452.77c-1.06-1.44-2.01-3.02-2.93-4.7-.21-.43-.49-.82-.74-1.33-.21-.43-.46-.93-.74-1.33-.21-.43-.14-.46-.39-.97-.6-.86-.99-1.29-1.93-.92-.28,.14-1.01,.59-1.25,.8-.73,.63-10.75,5.76-11.86,6.31-.42,.21-.77,.2-1.05-.19-.46-.4-.67-1.01-.88-1.61-.07-.32,.03-.64,.34-.88,.21-.28,.56-.45,.9-.62,1.63-.9,3.34-1.83,5.04-2.76,.63-.31,1.25-.62,1.77-.97,1.18-.76,1.31-2.07,.36-3.12-.7-.72-1.23-1.62-1.73-2.44-.71-1.43-1.49-2.83-2.26-4.23-.74-1.33-1.83-1.59-3.01-.83-1.25,.8-2.5,1.59-3.75,2.39-.83,.59-1.74,.86-2.71,1.16-.45,.13-.8-.05-1.05-.55-.35-.54-.85-2.07-.54-2.32,.97-1.01,12.8-6.33,13.88-7.13,.31-.24,.59-.56,.8-.84,.45-.67,.55-1.34-.01-2.13-.42-.5-3.96-7.13-4.88-8.81-.39-.79-1.09-.98-1.89-.85-.87,.16-1.6,.61-2.33,1.06-3.79,2.5-17.29,9.53-19.83,10.52-1.46,.55-2.93,1.09-4.35,1.71-.38,.1-.7,.34-.94,.55-.31,.24-.41,.74-.17,1.06,.6,.86,9.74,21.64,10.98,24.15,2.02,3.9,7.64,15.29,8,16.71,.18,1.07,.95,1.76,1.97,2.06,1.33,.41,5.22-1.87,9.47-4.15,5.53-3.36,14.3-7.16,18.13-8.87,2.16-1.07,2.25-2.81,1.3-3.85-.6-.68-1.23-1.26-1.72-2.09Z"/><path d="M407.5,423c-1.85-2.3-3.57-5.54-4.31-6.58-.8-1-1.96-1.81-2.97-1.09-.35,.18-1.48,1.5-1.73,1.81-1.24,1.31-5.01,4.55-6.25,5.24-1.06,1.16-2.32-.28-3.1-.99-.31-.26-.61-.64-.97-.96-2.13-2.39-13.91-18.23-16.03-21.24-.79-1.11-1.9-1.24-2.98-.47-.54,.44-2.96,3-4.45,4-1.66,1.03-4.67,3.36-6.07,4.59-1.33,1.07-.44,2.92,.2,3.84,1.54,2.04,22.42,27.68,23.73,29.3,1.1,1.37,2.26,2.8,3.18,4.31,.33,.66,.78,1.22,1.35,1.68,.47,.34,.97,.34,1.4,0,.29-.13,.48-.39,.68-.65,.83-1.08,1.85-1.91,2.88-2.73,1.15-.93,2.36-1.9,3.5-2.83,1.04-.94,13.81-10.83,14.05-11.02,1.33-1.07,.29-3.11-.1-3.71-.25-.31-1.64-2.16-2.01-2.49Z"/></svg>